<svg width="46" height="46" viewBox="0 0 46 46" fill="none" xmlns="http://www.w3.org/2000/svg">
<path d="M31.505 45.5V28.085H37.3375L38.21 21.315H31.505V16.995C31.505 15.035 32.05 13.6975 34.86 13.6975H38.445V7.6425C36.7095 7.45836 34.9652 7.36906 33.22 7.375C28.0525 7.375 24.515 10.53 24.515 16.325V21.315H18.67V28.085H24.515V45.5H3C2.33696 45.5 1.70107 45.2366 1.23223 44.7678C0.763392 44.2989 0.5 43.663 0.5 43V3C0.5 2.33696 0.763392 1.70107 1.23223 1.23223C1.70107 0.763392 2.33696 0.5 3 0.5H43C43.663 0.5 44.2989 0.763392 44.7678 1.23223C45.2366 1.70107 45.5 2.33696 45.5 3V43C45.5 43.663 45.2366 44.2989 44.7678 44.7678C44.2989 45.2366 43.663 45.5 43 45.5H31.505Z" fill="white"/>
</svg>
