<svg width="1278" height="430" viewBox="0 0 1278 430" fill="none" xmlns="http://www.w3.org/2000/svg">
<path opacity="0.01" d="M1168.86 383.768C1098.64 393.352 999.764 383.264 912.612 367.182C869.069 359.148 828.577 349.64 796.223 340.402C780.045 335.783 765.947 331.245 754.538 327.005C743.098 322.755 734.513 318.861 729.206 315.53C718.818 309.01 718.009 302.73 725.533 296.544C733.069 290.348 748.795 284.422 770.525 278.732C813.954 267.358 880.731 257.077 951.608 247.404C969.307 244.988 981.982 243.731 990.73 243.408C995.125 243.246 998.346 243.328 1000.6 243.568C1002.86 243.809 1003.54 244.13 1003.77 244.27C1004.18 244.519 1004.65 245.06 1004.51 246.041C1004.37 246.977 1003.7 248.112 1002.54 249.436C1000.23 252.078 996.131 255.298 991.221 258.931C989.675 260.075 988.05 261.259 986.38 262.475C977.496 268.945 967.33 276.349 960.919 283.721C957.108 288.102 954.576 292.522 954.459 296.779C954.343 301.027 956.63 305.243 962.839 309.14C968.991 313.001 979.275 316.718 991.736 320.281C1004.27 323.865 1019.41 327.407 1035.71 330.887C1052.02 334.371 1069.6 337.816 1087.02 341.197C1089.47 341.671 1091.91 342.144 1094.34 342.616C1109.29 345.512 1123.98 348.358 1137.6 351.152C1153.44 354.404 1167.69 357.56 1179.07 360.606C1190.59 363.689 1198.58 366.507 1202.54 369.034C1204.45 370.25 1205.45 371.415 1205.46 372.576C1205.46 373.761 1204.44 375.004 1201.96 376.278C1196.99 378.839 1186.52 381.358 1168.86 383.768Z" stroke="url(#paint0_linear_1369_4157)" stroke-width="4"/>
<path opacity="0.01" d="M1105 381.517C1032.07 389.286 936.482 376.691 854.467 358.451C813.478 349.336 775.984 338.833 746.528 328.814C731.799 323.804 719.133 318.933 709.067 314.435C698.961 309.92 691.664 305.865 687.457 302.482C679.278 295.905 680.169 289.67 689.58 283.652C698.954 277.658 716.418 272.148 739.775 267.03C786.454 256.801 856.066 248.26 929.553 240.432C947.907 238.477 960.934 237.544 969.78 237.446C974.225 237.396 977.45 237.56 979.672 237.863C980.777 238.014 981.484 238.18 981.897 238.309C982.242 238.417 982.317 238.477 982.333 238.49C982.334 238.491 982.335 238.491 982.335 238.492C982.479 238.603 982.863 239.079 982.414 240.081C981.999 241.008 980.992 242.123 979.44 243.415C976.345 245.992 971.301 249.098 965.328 252.592C963.446 253.693 961.474 254.831 959.448 256C948.671 262.219 936.346 269.332 927.769 276.508C922.673 280.771 918.832 285.109 917.447 289.352C916.07 293.57 917.055 297.896 922.235 302.061C927.352 306.176 936.653 310.191 947.988 314.052C959.428 317.95 973.469 321.867 988.665 325.75C1003.88 329.636 1020.36 333.517 1036.72 337.329C1039.01 337.864 1041.3 338.398 1043.59 338.93C1057.62 342.196 1071.4 345.406 1084.13 348.537C1098.95 352.182 1112.2 355.687 1122.61 359.007C1127.82 360.666 1132.23 362.251 1135.74 363.756C1139.26 365.266 1141.7 366.626 1143.18 367.838C1144.61 369.005 1145.25 370.128 1144.92 371.265C1144.58 372.438 1143.18 373.658 1140.31 374.876C1134.55 377.317 1123.32 379.566 1105 381.517Z" stroke="url(#paint1_linear_1369_4157)" stroke-width="4"/>
<path opacity="0.0125" d="M1040.23 378.101C965.169 383.988 873.621 368.981 797.348 348.719C759.221 338.59 725.002 327.172 698.66 316.446C685.486 311.082 674.343 305.916 665.688 301.197C656.983 296.452 651.029 292.285 647.936 288.906C641.965 282.384 644.486 276.225 655.767 270.411C666.914 264.667 685.983 259.617 710.788 255.112C760.359 246.109 832.271 239.375 907.809 233.451C926.679 231.971 939.955 231.372 948.825 231.5C953.282 231.564 956.481 231.811 958.645 232.177C959.73 232.36 960.396 232.548 960.757 232.683C960.797 232.698 960.831 232.711 960.858 232.722C960.871 232.769 960.881 232.842 960.873 232.943C960.853 233.215 960.708 233.58 960.362 234.037C959.672 234.951 958.333 236.039 956.398 237.289C952.542 239.781 946.585 242.75 939.594 246.078C937.391 247.127 935.087 248.211 932.72 249.325C920.132 255.245 905.745 262.012 895.07 268.938C888.73 273.051 883.614 277.272 880.97 281.464C878.359 285.604 877.97 290.015 882.047 294.468C886.059 298.85 894.314 303.15 904.413 307.269C914.664 311.449 927.492 315.712 941.47 319.966C955.466 324.225 970.734 328.511 985.89 332.727C988.016 333.318 990.14 333.908 992.258 334.496C1005.26 338.108 1018.04 341.657 1029.79 345.101C1043.47 349.111 1055.62 352.94 1065 356.51C1069.69 358.294 1073.58 359.978 1076.59 361.548C1079.63 363.13 1081.54 364.485 1082.56 365.625C1083.51 366.69 1083.85 367.752 1083.18 368.868C1082.49 370.028 1080.73 371.218 1077.48 372.368C1070.98 374.667 1059.07 376.623 1040.23 378.101ZM960.968 232.772C960.968 232.772 960.965 232.771 960.959 232.767C960.966 232.771 960.968 232.772 960.968 232.772Z" stroke="url(#paint2_linear_1369_4157)" stroke-width="4"/>
<path opacity="0.0166667" d="M974.947 373.514C898.341 377.467 811.553 360.166 741.592 338.031C706.617 326.965 675.926 314.716 652.887 303.364C641.363 297.686 631.818 292.263 624.627 287.36C617.376 282.414 612.793 278.182 610.793 274.862C608.873 271.675 608.909 268.598 611.125 265.559C613.359 262.496 617.741 259.591 624.167 256.865C637.008 251.416 657.535 246.867 683.595 243.011C735.678 235.303 809.339 230.429 886.352 226.454C905.593 225.461 919.013 225.203 927.832 225.557C932.263 225.735 935.404 226.064 937.485 226.491C938.282 226.654 938.833 226.814 939.192 226.944C939.078 227.192 938.835 227.522 938.398 227.928C937.434 228.824 935.771 229.877 933.466 231.076C928.875 233.464 922.05 236.272 914.096 239.409C911.587 240.398 908.968 241.419 906.278 242.469C891.975 248.046 875.637 254.416 862.947 261.04C855.413 264.972 849.066 269.042 845.185 273.149C841.39 277.166 839.566 281.621 842.428 286.371C843.859 288.747 846.393 291.061 849.543 293.269C852.704 295.485 856.645 297.707 861.133 299.922C870.106 304.351 881.618 308.925 894.272 313.518C906.945 318.117 920.876 322.776 934.719 327.362C936.661 328.005 938.601 328.647 940.535 329.287C952.412 333.216 964.087 337.079 974.768 340.81C987.205 345.155 998.17 349.28 1006.45 353.074C1010.59 354.972 1013.95 356.742 1016.46 358.366C1019 360.013 1020.39 361.337 1020.99 362.365C1021.52 363.281 1021.6 364.277 1020.6 365.379C1019.56 366.521 1017.44 367.672 1013.83 368.741C1006.64 370.875 994.164 372.522 974.947 373.514ZM939.268 226.671C939.268 226.671 939.268 226.673 939.268 226.676C939.268 226.673 939.268 226.671 939.268 226.671Z" stroke="url(#paint3_linear_1369_4157)" stroke-width="4"/>
<path opacity="0.0208333" d="M909.517 367.795C831.977 369.781 750.636 350.32 687.522 326.481C655.966 314.561 629.037 301.574 609.468 289.678C599.678 283.728 591.793 278.088 586.105 273.032C580.35 267.918 577.127 263.651 576.159 260.413C575.243 257.35 576.117 254.345 579.244 251.362C582.384 248.364 587.624 245.577 594.851 243.02C609.284 237.912 631.106 233.903 658.221 230.725C712.414 224.374 787.257 221.397 865.16 219.402C884.625 218.904 898.081 218.988 906.775 219.567C911.141 219.858 914.191 220.267 916.159 220.75C916.683 220.879 917.089 221.003 917.397 221.115C917.201 221.31 916.925 221.543 916.549 221.809C915.317 222.68 913.34 223.69 910.684 224.827C905.393 227.091 897.752 229.716 888.894 232.639C886.099 233.56 883.186 234.511 880.193 235.488C864.283 240.679 846.118 246.606 831.511 252.878C822.839 256.601 815.311 260.49 810.227 264.479C807.686 266.473 805.682 268.546 804.47 270.706C803.257 272.868 802.768 275.246 803.527 277.787C804.278 280.299 806.181 282.731 808.672 285.021C811.178 287.325 814.453 289.645 818.263 291.965C825.885 296.607 835.99 301.457 847.224 306.353C858.478 311.258 870.967 316.253 883.391 321.175C885.134 321.865 886.876 322.554 888.612 323.241C899.274 327.458 909.755 331.605 919.285 335.594C930.383 340.241 940.082 344.631 947.198 348.622C950.76 350.62 953.579 352.465 955.578 354.136C957.621 355.843 958.523 357.131 958.775 358.039C958.987 358.801 958.858 359.743 957.512 360.832C956.13 361.951 953.65 363.049 949.726 364.026C941.902 365.975 928.961 367.298 909.517 367.795ZM918.117 221.444C918.117 221.444 918.117 221.444 918.115 221.442C918.117 221.444 918.118 221.444 918.117 221.444ZM917.766 220.635C917.768 220.627 917.77 220.623 917.77 220.623C917.77 220.623 917.769 220.627 917.766 220.635Z" stroke="url(#paint4_linear_1369_4157)" stroke-width="4"/>
<path opacity="0.025" d="M844.262 361.027C766.409 361.027 691.161 339.561 635.382 314.201C607.492 301.52 584.532 287.895 568.579 275.545C560.598 269.367 554.425 263.549 550.268 258.372C546.056 253.128 544.141 248.823 544.141 245.627C544.141 242.622 545.866 239.674 549.88 236.773C553.903 233.866 559.958 231.221 567.924 228.856C583.831 224.134 606.771 220.696 634.73 218.222C690.612 213.277 766.061 212.22 844.262 212.22C863.801 212.22 877.185 212.648 885.678 213.447C889.942 213.848 892.866 214.334 894.69 214.867C895.096 214.986 895.422 215.1 895.679 215.205C895.444 215.37 895.146 215.558 894.774 215.768C893.285 216.606 891.011 217.563 888.025 218.628C882.078 220.75 873.682 223.171 863.987 225.856C860.928 226.703 857.742 227.576 854.47 228.472C837.075 233.238 817.217 238.678 800.8 244.552C791.055 248.04 782.401 251.721 776.151 255.563C773.028 257.483 770.413 259.498 768.558 261.623C766.704 263.748 765.485 266.132 765.485 268.734C765.485 271.305 766.678 273.803 768.479 276.15C770.294 278.514 772.869 280.911 775.972 283.319C782.183 288.138 790.804 293.226 800.537 298.39C810.286 303.563 821.239 308.858 832.151 314.077C833.682 314.809 835.211 315.54 836.736 316.269C846.101 320.742 855.309 325.14 863.615 329.358C873.288 334.27 881.644 338.892 887.545 343.05C890.5 345.132 892.757 347.041 894.247 348.752C895.776 350.508 896.262 351.784 896.245 352.638C896.23 353.33 895.864 354.246 894.184 355.307C892.47 356.389 889.664 357.422 885.458 358.297C877.075 360.04 863.782 361.027 844.262 361.027ZM896.447 215.615C896.447 215.615 896.445 215.613 896.442 215.61C896.446 215.613 896.447 215.615 896.447 215.615ZM896.325 214.644C896.331 214.633 896.335 214.628 896.336 214.628C896.336 214.628 896.333 214.633 896.325 214.644Z" stroke="url(#paint5_linear_1369_4157)" stroke-width="4"/>
<path opacity="0.0291667" d="M779.42 353.264C701.88 351.279 633.321 327.979 585.309 301.294C561.304 287.952 542.49 273.794 530.275 261.084C524.165 254.726 519.746 248.771 517.143 243.503C514.511 238.174 513.867 233.808 514.835 230.571C515.751 227.507 518.394 224.593 523.243 221.813C528.114 219.021 534.929 216.542 543.563 214.391C560.807 210.095 584.676 207.256 613.264 205.504C670.401 202.004 745.874 202.876 823.777 204.871C843.242 205.369 856.444 206.137 864.662 207.149C868.789 207.657 871.551 208.215 873.202 208.79C873.641 208.944 873.967 209.087 874.205 209.212C873.896 209.395 873.486 209.61 872.958 209.853C871.228 210.648 868.681 211.543 865.391 212.527C858.837 214.488 849.755 216.685 839.298 219.112C835.998 219.878 832.565 220.666 829.038 221.476C810.29 225.78 788.885 230.694 770.778 236.128C760.029 239.353 750.309 242.801 742.935 246.471C739.249 248.305 736.046 250.245 733.571 252.311C731.094 254.378 729.201 256.695 728.442 259.236C727.691 261.749 728.121 264.241 729.216 266.622C730.317 269.018 732.166 271.469 734.542 273.948C739.294 278.907 746.368 284.196 754.527 289.589C762.699 294.991 772.035 300.546 781.351 306.024C782.657 306.793 783.964 307.559 785.266 308.324C793.264 313.019 801.126 317.635 808.144 322.049C816.317 327.189 823.264 332.005 827.903 336.297C830.226 338.446 831.907 340.406 832.885 342.153C833.884 343.938 834.008 345.252 833.718 346.159C833.475 346.921 832.789 347.841 830.817 348.846C828.793 349.877 825.699 350.833 821.254 351.596C812.394 353.117 798.864 353.762 779.42 353.264ZM874.718 209.574C874.718 209.574 874.718 209.573 874.717 209.572C874.718 209.573 874.718 209.574 874.718 209.574ZM874.852 208.759C874.859 208.751 874.863 208.747 874.864 208.747C874.864 208.747 874.861 208.751 874.852 208.759Z" stroke="url(#paint6_linear_1369_4157)" stroke-width="4"/>
<path opacity="0.0333333" d="M715.218 344.472C638.611 340.518 577.275 315.573 537.399 287.769C517.464 273.87 502.938 259.287 494.554 246.313C490.36 239.823 487.727 233.773 486.7 228.445C485.665 223.072 486.305 218.636 488.305 215.316C490.225 212.13 493.854 209.241 499.487 206.608C505.167 203.953 512.678 201.662 521.903 199.743C540.337 195.908 564.941 193.689 593.936 192.674C651.884 190.645 726.799 193.438 803.813 197.413C823.053 198.406 835.966 199.506 843.839 200.722C847.794 201.333 850.362 201.956 851.82 202.565C852.377 202.798 852.708 203.004 852.893 203.163C852.497 203.384 851.883 203.669 850.997 204.007C849.045 204.753 846.251 205.576 842.685 206.472C835.58 208.256 825.885 210.212 814.745 212.363C811.231 213.042 807.577 213.739 803.823 214.456C783.865 218.265 761.069 222.616 741.404 227.569C729.729 230.51 719.009 233.699 710.563 237.17C702.303 240.565 695.383 244.569 692.521 249.319C691.09 251.695 690.767 254.123 691.146 256.513C691.527 258.912 692.635 261.394 694.263 263.925C697.52 268.985 702.993 274.436 709.516 280.018C716.05 285.609 723.697 291.381 731.347 297.076C732.42 297.875 733.492 298.672 734.562 299.467C741.131 304.349 747.589 309.147 753.265 313.723C759.875 319.05 765.359 324.024 768.703 328.418C770.376 330.616 771.471 332.616 771.928 334.393C772.391 336.195 772.148 337.579 771.509 338.604C770.938 339.518 769.853 340.462 767.625 341.398C765.316 342.368 761.971 343.236 757.334 343.88C748.083 345.165 734.435 345.464 715.218 344.472ZM853.284 202.913C853.284 202.913 853.282 202.915 853.278 202.918C853.282 202.915 853.284 202.913 853.284 202.913Z" stroke="url(#paint7_linear_1369_4157)" stroke-width="4"/>
<path opacity="0.0375" d="M651.971 334.591C576.906 328.704 523.259 302.31 491.819 273.6C476.104 259.249 465.975 244.353 461.484 231.209C459.238 224.636 458.413 218.532 458.979 213.178C459.548 207.794 461.51 203.315 464.604 199.935C470.574 193.414 483.279 188.449 502.979 185.065C522.447 181.721 547.588 180.139 576.765 179.867C635.076 179.325 708.858 184.017 784.395 189.941C803.265 191.421 815.785 192.845 823.248 194.254C826.998 194.962 829.347 195.644 830.597 196.277C831.223 196.595 831.48 196.854 831.562 197.024C831.571 197.043 831.577 197.059 831.582 197.073C831.512 197.116 831.397 197.18 831.218 197.267C830.736 197.499 829.986 197.794 828.905 198.14C826.746 198.83 823.729 199.576 819.917 200.376C812.32 201.97 802.089 203.669 790.35 205.528C786.649 206.114 782.803 206.716 778.851 207.334C757.835 210.619 733.816 214.374 712.739 218.809C700.222 221.444 688.582 224.35 679.129 227.594C669.795 230.797 661.925 234.56 657.848 239.013C653.836 243.395 653.639 248.328 655.349 253.372C657.085 258.493 660.913 264.061 665.751 269.791C670.596 275.528 676.496 281.474 682.421 287.343C683.252 288.166 684.083 288.988 684.912 289.807C690.003 294.838 695.006 299.782 699.298 304.484C704.294 309.959 708.277 315.053 710.3 319.516C711.312 321.748 711.812 323.777 711.737 325.577C711.661 327.391 711.007 328.845 709.941 329.981C708.945 331.043 707.419 332.011 704.938 332.881C702.36 333.784 698.798 334.557 694.018 335.077C684.464 336.116 670.812 336.068 651.971 334.591ZM831.591 197.133C831.591 197.133 831.591 197.131 831.592 197.127C831.592 197.131 831.591 197.133 831.591 197.133Z" stroke="url(#paint8_linear_1369_4157)" stroke-width="4"/>
<path opacity="0.0416667" d="M590.039 323.601C517.109 315.832 471.547 288.2 448.776 258.798C437.396 244.103 431.739 229.004 431.179 215.787C430.899 209.178 431.895 203.063 434.061 197.724C436.236 192.364 439.55 187.885 443.758 184.502C451.936 177.925 466.31 173.317 486.737 170.477C507.082 167.649 532.561 166.714 561.694 167.187C619.916 168.133 691.998 174.687 765.485 182.516C783.839 184.471 795.866 186.208 802.86 187.796C806.374 188.595 808.483 189.327 809.52 189.978C810.035 190.301 810.213 190.561 810.245 190.737C810.272 190.885 810.198 190.945 810.182 190.958C810.181 190.959 810.181 190.959 810.18 190.96C810.046 191.072 809.293 191.509 806.75 192.192C804.396 192.824 801.176 193.489 797.149 194.187C789.119 195.578 778.434 197.009 766.185 198.562C762.326 199.051 758.317 199.552 754.196 200.066C732.282 202.803 707.221 205.933 684.89 209.816C671.624 212.123 659.155 214.724 648.775 217.713C638.457 220.685 629.712 224.184 624.531 228.35C619.415 232.465 617.722 237.29 617.925 242.381C618.129 247.519 620.282 253.161 623.397 258.994C626.515 264.833 630.622 270.908 634.776 276.905C635.359 277.747 635.943 278.586 636.525 279.424C640.098 284.565 643.61 289.618 646.484 294.411C649.831 299.991 652.283 305.168 652.97 309.671C653.313 311.921 653.209 313.966 652.591 315.778C651.971 317.597 650.86 319.099 649.331 320.306C647.859 321.468 645.885 322.449 643.135 323.257C640.296 324.091 636.547 324.764 631.671 325.157C621.902 325.944 608.358 325.552 590.039 323.601Z" stroke="url(#paint9_linear_1369_4157)" stroke-width="4"/>
<path opacity="0.0458333" d="M529.778 311.527C459.554 301.943 422.403 273.29 408.471 243.412C401.511 228.485 400.369 213.295 403.75 200.103C405.44 193.506 408.257 187.428 412.018 182.145C415.79 176.848 420.463 172.42 425.77 169.089C436.158 162.569 452.074 158.351 473.101 156.062C494.161 153.769 519.779 153.486 548.641 154.7C606.325 157.126 676.156 165.49 747.033 175.164C764.731 177.579 776.17 179.613 782.638 181.367C785.888 182.248 787.743 183.023 788.565 183.684C789.387 184.345 788.98 184.702 788.761 184.844C788.374 185.095 787.263 185.55 784.603 186.148C782.064 186.719 778.661 187.298 774.452 187.889C766.049 189.069 754.989 190.22 742.325 191.455C738.337 191.844 734.195 192.24 729.938 192.647C707.292 194.815 681.38 197.295 657.966 200.595C644.05 202.557 630.853 204.83 619.636 207.541C608.444 210.245 598.88 213.468 592.672 217.365C586.52 221.226 583.401 225.921 582.085 231.005C580.761 236.119 581.224 241.791 582.59 247.681C583.958 253.578 586.24 259.733 588.593 265.814C588.923 266.667 589.254 267.519 589.585 268.368C591.613 273.58 593.607 278.703 595.044 283.552C596.716 289.195 597.618 294.419 596.96 298.928C596.295 303.492 594.055 307.095 589.988 309.607C588.031 310.816 585.624 311.79 582.59 312.538C579.495 313.302 575.582 313.87 570.657 314.135C560.759 314.666 547.432 313.937 529.778 311.527Z" stroke="url(#paint10_linear_1369_4157)" stroke-width="4"/>
<path opacity="0.05" d="M471.523 298.42C404.555 287.103 376.067 257.652 371.083 227.519C368.594 212.47 371.979 197.302 379.282 184.234C386.611 171.12 397.803 160.272 410.624 153.772C423.166 147.414 440.477 143.619 461.987 141.885C483.602 140.141 509.16 140.511 537.525 142.455C594.225 146.341 661.27 156.449 728.998 167.894C745.905 170.751 756.665 173.063 762.557 174.966C765.515 175.922 767.106 176.731 767.715 177.397C768.305 178.04 767.899 178.432 767.397 178.694C766.745 179.035 765.307 179.489 762.519 180.009C759.806 180.516 756.24 181.006 751.879 181.487C743.166 182.447 731.814 183.311 718.831 184.218C714.744 184.503 710.501 184.792 706.139 185.089C682.934 186.671 656.369 188.481 632.052 191.173C617.594 192.774 603.778 194.701 591.819 197.111C579.865 199.519 569.539 202.455 562.358 206.095C555.227 209.71 550.746 214.254 547.921 219.285C545.085 224.335 543.857 229.991 543.464 235.894C543.07 241.801 543.511 247.991 544.044 254.109C544.119 254.967 544.196 255.824 544.272 256.678C544.741 261.923 545.201 267.078 545.189 271.945C545.174 277.609 544.517 282.84 542.516 287.324C540.499 291.844 537.181 295.436 532.212 297.921C529.783 299.135 526.968 300.08 523.651 300.763C520.301 301.453 516.247 301.914 511.315 302.05C501.374 302.325 488.374 301.267 471.523 298.42Z" stroke="url(#paint11_linear_1369_4157)" stroke-width="4"/>
<path opacity="0.0541667" d="M415.583 284.339C352.395 271.389 332.751 241.367 336.762 211.198C338.764 196.141 346.655 181.11 357.832 168.266C369.038 155.389 383.45 144.824 398.284 138.624C412.886 132.52 431.434 129.18 453.308 128.004C475.316 126.821 500.617 127.839 528.264 130.496C583.541 135.808 647.285 147.58 711.348 160.709C727.335 163.986 737.331 166.557 742.602 168.591C745.245 169.611 746.565 170.445 746.967 171.112C747.348 171.745 746.887 172.171 746.099 172.509C745.188 172.901 743.46 173.338 740.54 173.784C737.664 174.222 733.957 174.62 729.476 174.987C720.515 175.721 708.955 176.292 695.753 176.864C691.597 177.044 687.285 177.224 682.852 177.409C659.264 178.392 632.252 179.518 607.221 181.58C577.645 184.016 549.81 187.834 533.673 194.579C525.613 197.948 519.83 202.32 515.521 207.255C511.202 212.203 508.297 217.799 506.147 223.669C503.997 229.542 502.593 235.719 501.302 241.827C501.121 242.684 500.942 243.539 500.764 244.392C499.669 249.628 498.593 254.776 497.131 259.626C495.429 265.267 493.216 270.468 489.881 274.892C486.527 279.34 482.125 282.882 476.293 285.288C473.417 286.475 470.225 287.373 466.637 287.982C463.042 288.593 458.869 288.944 453.968 288.954C444.068 288.974 431.498 287.601 415.583 284.339Z" stroke="url(#paint12_linear_1369_4157)" stroke-width="4"/>
<path opacity="0.0583333" d="M362.241 269.355C332.821 262.129 315.395 250.938 306.967 237.765C298.541 224.594 299.145 209.495 305.626 194.539C312.106 179.586 324.447 164.806 339.419 152.286C354.42 139.741 371.959 129.552 388.688 123.717C405.23 117.947 424.851 115.089 446.961 114.477C469.201 113.861 494.053 115.517 520.763 118.864C574.189 125.559 634.144 138.901 694.054 153.615C708.996 157.285 718.148 160.092 722.761 162.237C725.068 163.31 726.115 164.162 726.314 164.826C726.502 165.455 725.938 165.91 724.877 166.289C723.719 166.704 721.738 167.11 718.689 167.48C715.668 167.847 711.843 168.149 707.273 168.4C698.128 168.903 686.445 169.177 673.125 169.41C668.932 169.483 664.583 169.552 660.112 169.623C636.32 170.001 609.072 170.434 583.52 171.849C553.255 173.526 524.568 176.619 506.679 182.859C497.748 185.974 490.72 190.152 484.965 194.953C479.201 199.762 474.645 205.256 470.756 211.048C466.866 216.841 463.629 222.957 460.525 229.009C460.089 229.858 459.656 230.705 459.225 231.55C456.575 236.739 453.969 241.841 451.068 246.636C447.693 252.213 443.936 257.342 439.288 261.673C434.621 266.02 429.147 269.471 422.503 271.761C416.015 273.996 408.416 275.13 398.906 274.905C389.131 274.675 377.092 273.002 362.241 269.355Z" stroke="url(#paint13_linear_1369_4157)" stroke-width="4"/>
<path opacity="0.0625" d="M311.754 253.54C284.717 245.627 270.698 234.068 266.225 220.73C261.753 207.398 266.85 192.371 277.764 177.631C288.676 162.895 305.378 148.479 324.035 136.379C342.72 124.261 363.262 114.534 381.752 109.122C400.095 103.754 420.621 101.405 442.83 101.359C465.143 101.312 489.357 103.591 514.918 107.599C566.077 115.621 621.784 130.427 677.084 146.613C690.868 150.647 699.102 153.663 703.023 155.898C704.978 157.012 705.754 157.874 705.755 158.533C705.755 159.163 705.052 159.638 703.738 160.033C702.35 160.449 700.15 160.813 696.985 161.106C693.838 161.397 689.921 161.601 685.294 161.734C676.03 162.002 664.31 161.976 650.974 161.869C646.775 161.835 642.421 161.793 637.946 161.749C614.132 161.519 586.858 161.255 560.985 162.013C530.29 162.913 500.944 165.264 481.43 170.975C462.045 176.649 448.547 186.778 437.398 198.072C431.799 203.742 426.755 209.75 421.86 215.7C421.173 216.534 420.49 217.367 419.808 218.198C415.624 223.299 411.508 228.317 407.188 233.02C402.165 238.491 396.891 243.51 390.96 247.713C385.012 251.927 378.496 255.253 371.098 257.392C363.799 259.502 355.76 260.432 346.404 259.969C336.829 259.494 325.419 257.54 311.754 253.54Z" stroke="url(#paint14_linear_1369_4157)" stroke-width="4"/>
<path opacity="0.0666667" d="M264.36 236.977C239.924 228.454 229.391 216.621 228.906 203.213C228.422 189.82 237.973 174.977 253.243 160.565C268.507 146.158 289.447 132.216 311.65 120.631C333.879 109.032 357.274 99.8479 377.378 94.9106C397.367 90.0015 418.625 88.1821 440.788 88.7034C463.018 89.2262 486.413 92.1103 510.624 96.7436C559.116 106.024 610.146 122.174 660.416 139.709C672.933 144.075 680.184 147.271 683.388 149.571C684.979 150.713 685.491 151.577 685.296 152.231C685.107 152.863 684.242 153.35 682.696 153.74C679.414 154.567 673.028 154.966 663.565 154.997C654.249 155.027 642.577 154.703 629.327 154.255C625.153 154.114 620.828 153.961 616.383 153.804C592.727 152.967 565.64 152.009 539.646 152.104C508.778 152.217 478.971 153.813 457.97 158.971C437.082 164.101 420.652 173.815 406.173 184.787C398.91 190.291 392.098 196.146 385.449 201.949C384.517 202.762 383.588 203.575 382.662 204.385C376.974 209.36 371.378 214.254 365.674 218.831C359.039 224.154 352.284 229.024 345.113 233.066C337.927 237.116 330.41 240.283 322.323 242.245C314.286 244.194 305.882 244.912 296.716 244.213C287.414 243.504 276.727 241.291 264.36 236.977Z" stroke="url(#paint15_linear_1369_4157)" stroke-width="4"/>
<path opacity="0.0708333" d="M220.268 219.749C198.627 210.703 191.624 198.695 195.137 185.31C198.643 171.954 212.581 157.407 232.093 143.433C271.147 115.463 332.213 90.0073 375.437 81.1488C396.908 76.7487 418.722 75.4763 440.687 76.563C462.681 77.6511 485.083 81.1174 507.753 86.3348C553.2 96.7939 599.162 114.157 644.016 132.906C655.17 137.568 661.378 140.91 663.85 143.25C665.071 144.406 665.327 145.268 664.938 145.914C664.555 146.55 663.513 147.039 661.759 147.408C658.114 148.175 651.51 148.403 642.103 148.193C632.803 147.985 621.265 147.364 608.201 146.58C604.084 146.333 599.82 146.071 595.437 145.8C572.12 144.363 545.43 142.718 519.517 142.15C488.727 141.475 458.665 142.309 436.327 146.887C414.085 151.446 394.86 160.678 377.163 171.243C367.082 177.261 357.374 183.794 347.865 190.193C340.716 195.004 333.68 199.739 326.683 204.122C310.228 214.43 293.923 222.839 276.396 226.385C267.701 228.144 259.007 228.643 250.072 227.712C241.106 226.777 231.23 224.332 220.268 219.749Z" stroke="url(#paint16_linear_1369_4157)" stroke-width="4"/>
<path opacity="0.075" d="M179.662 201.945C160.988 192.478 157.517 180.389 165.018 167.119C172.49 153.9 190.713 139.758 214.322 126.33C261.564 99.4577 330.01 75.6383 375.788 67.9026C398.564 64.0539 420.757 63.3412 442.367 64.988C463.973 66.6346 485.221 70.657 506.176 76.4121C548.22 87.9592 588.762 106.389 627.857 126.208C637.558 131.126 642.677 134.577 644.412 136.929C645.265 138.085 645.273 138.941 644.688 139.58C644.105 140.217 642.879 140.698 640.943 141.035C636.973 141.726 630.222 141.777 620.929 141.328C611.713 140.883 600.395 139.969 587.616 138.855C583.586 138.504 579.416 138.133 575.129 137.752C552.328 135.726 526.241 133.407 500.609 132.181C470.143 130.724 440.037 130.793 416.52 134.766C393.086 138.726 371.22 147.413 350.44 157.488C338.605 163.227 326.998 169.483 315.625 175.612C307.071 180.222 298.65 184.761 290.365 188.954C270.914 198.797 252.129 206.782 233.524 209.882C224.252 211.427 215.344 211.702 206.686 210.542C198.106 209.392 189.124 206.742 179.662 201.945Z" stroke="url(#paint17_linear_1369_4157)" stroke-width="4"/>
<path opacity="0.0791667" d="M142.699 183.659C134.944 178.791 131.029 173.343 130.52 167.436C130.011 161.527 132.921 155.234 138.614 148.742C149.998 135.758 172.374 122.129 199.901 109.349C254.975 83.7799 330.288 61.7824 378.262 55.2348C402.16 51.9732 424.552 51.8286 445.645 54.0263C466.715 56.2216 486.657 60.771 505.741 67.0134C544.055 79.5462 578.87 98.8851 611.905 119.62C620.077 124.75 624.072 128.267 625.077 130.601C625.57 131.745 625.339 132.593 624.554 133.225C623.764 133.86 622.354 134.324 620.261 134.619C616.007 135.219 609.18 135.089 600.061 134.405C590.998 133.726 579.985 132.525 567.587 131.09C563.645 130.634 559.566 130.154 555.372 129.66C507.088 123.978 443.578 116.505 398.556 122.649C374.1 125.987 349.765 134.067 326.062 143.575C312.563 148.99 299.146 154.922 285.997 160.735C276.103 165.11 266.361 169.417 256.848 173.387C234.549 182.693 213.419 190.187 193.887 192.811C184.125 194.122 175.079 194.171 166.748 192.785C158.592 191.428 150.578 188.604 142.699 183.659Z" stroke="url(#paint18_linear_1369_4157)" stroke-width="4"/>
<path opacity="0.0833333" d="M109.508 164.985C103.372 160.051 101.076 154.589 102.328 148.692C103.579 142.802 108.348 136.607 115.959 130.28C131.175 117.629 157.537 104.616 188.775 92.583C251.265 68.5119 332.873 48.508 382.67 43.2031C432.274 37.9189 472.273 44.8767 506.285 58.1734C540.579 71.58 569.41 91.6589 596.13 113.146C602.707 118.435 605.562 121.971 605.86 124.26C606.144 126.44 604.123 127.67 599.737 128.156C595.241 128.654 588.408 128.342 579.526 127.429C570.685 126.519 560.06 125.04 548.138 123.294C544.349 122.739 540.432 122.158 536.407 121.56C489.97 114.665 429.022 105.615 382.437 110.577C357.137 113.272 330.522 120.689 304.077 129.556C289.015 134.606 273.893 140.17 259.069 145.623C247.911 149.729 236.921 153.772 226.252 157.488C201.273 166.187 177.956 173.129 157.653 175.251C147.489 176.313 138.383 176.132 130.434 174.526C122.723 172.969 115.743 169.999 109.508 164.985Z" stroke="url(#paint19_linear_1369_4157)" stroke-width="4"/>
<path opacity="0.0875" d="M80.1879 146.024C75.6869 141.107 74.9696 135.684 77.9796 129.828C80.9775 123.996 87.5738 117.944 97.0477 111.83C115.985 99.6075 146.137 87.3111 180.849 76.1177C250.28 53.7285 337.562 35.8742 388.796 31.8562C439.913 27.8473 477.761 35.8371 507.617 49.9188C537.645 64.0819 560.296 84.7233 580.495 106.787C585.429 112.177 587.154 115.684 586.781 117.903C586.42 120.05 584.039 121.267 579.399 121.649C574.707 122.036 567.937 121.543 559.356 120.406C550.806 119.272 540.651 117.526 529.294 115.483C525.687 114.833 521.961 114.155 518.132 113.457C473.907 105.401 415.964 94.8451 368.159 98.5942C342.199 100.63 313.506 107.33 284.522 115.489C268.013 120.136 251.301 125.29 234.915 130.343C222.577 134.148 210.423 137.896 198.678 141.328C171.209 149.356 145.88 155.688 124.971 157.288C114.493 158.09 105.406 157.677 97.9021 155.859C94.1957 154.962 90.9215 153.733 88.0373 152.154C85.1537 150.575 82.5166 148.567 80.1879 146.024Z" stroke="url(#paint20_linear_1369_4157)" stroke-width="4"/>
<path opacity="0.0916667" d="M54.814 126.875C51.9106 122.056 52.7136 116.71 57.4789 110.926C62.2024 105.192 70.5807 99.327 81.8484 93.4726C104.366 81.7729 138.08 70.2881 176 60.0208C251.845 39.4851 344.136 23.9195 396.406 21.2219C448.616 18.5274 484.004 27.4811 509.524 42.2542C535.1 57.0596 551.443 78.0891 564.972 100.547C568.242 105.974 568.879 109.412 567.876 111.55C566.884 113.666 564.123 114.849 559.295 115.117C554.455 115.386 547.817 114.715 539.602 113.361C531.41 112.012 521.805 110.012 511.1 107.687C507.701 106.948 504.193 106.177 500.589 105.385C458.919 96.2291 404.398 84.2492 355.722 86.7612C329.291 88.1253 298.736 94.0618 267.434 101.45C249.602 105.658 231.428 110.364 213.605 114.979C200.18 118.455 186.955 121.879 174.224 125.001C144.473 132.296 117.327 137.966 95.9809 139.028C85.2806 139.561 76.295 138.918 69.3045 136.9C65.8466 135.901 62.969 134.593 60.6194 132.983C58.287 131.384 56.3285 129.389 54.814 126.875Z" stroke="url(#paint21_linear_1369_4157)" stroke-width="4"/>
<path opacity="0.0958333" d="M33.4219 107.643C32.0194 102.951 34.3027 97.7023 40.8102 92.0283C47.2262 86.4342 57.3258 80.8015 70.3012 75.2537C96.2292 64.1679 133.246 53.5841 174.084 44.322C255.763 25.7974 352.355 12.6421 405.251 11.2876C458.12 9.93379 490.753 19.7742 511.773 35.1388C532.767 50.4851 542.744 71.7531 549.521 94.4269C551.141 99.8439 550.752 103.199 549.15 105.26C547.532 107.341 544.397 108.469 539.452 108.614C529.471 108.907 513.638 105.183 493.578 99.9741C490.412 99.1519 487.148 98.2948 483.795 97.4144C445.003 87.2285 394.294 73.9134 345.097 75.1732C318.383 75.8572 286.193 80.988 252.811 87.5494C233.794 91.2872 214.293 95.51 195.167 99.6519C180.759 102.772 166.563 105.846 152.945 108.632C121.136 115.141 92.3863 120.101 70.7791 120.615C59.9471 120.873 51.1494 120.004 44.7488 117.802C41.5759 116.71 39.1065 115.33 37.2732 113.691C35.4679 112.077 34.1581 110.105 33.4219 107.643Z" stroke="url(#paint22_linear_1369_4157)" stroke-width="4"/>
<path opacity="0.1" d="M16.0239 88.4267C16.0239 83.7966 19.8091 78.6468 28.004 73.1453C36.0634 67.7347 47.8054 62.3796 62.3864 57.1828C91.5218 46.7989 131.554 37.1987 174.997 29.0133C261.884 12.6422 362.031 1.99995 415.138 1.99995C468.227 1.99995 497.821 12.6416 514.186 28.4849C530.509 44.2869 534.108 65.6877 534.108 88.4267C534.108 93.8303 532.735 97.1272 530.541 99.1246C528.308 101.158 524.834 102.208 519.846 102.227C509.799 102.264 495.121 98.1451 476.694 92.4455C473.785 91.5457 470.789 90.6088 467.711 89.6464C432.098 78.5092 385.559 63.955 336.188 63.955C294.171 63.955 235.287 74.5169 179.469 84.5289C164.222 87.2638 149.203 89.9577 134.819 92.3841C101.195 98.0561 71.0698 102.265 49.3827 102.227C38.5106 102.207 29.9919 101.116 24.2587 98.7541C21.4139 97.5821 19.3668 96.1421 18.0355 94.4713C16.7292 92.8318 16.0239 90.8623 16.0239 88.4267Z" stroke="url(#paint23_linear_1369_4157)" stroke-width="4"/>
<defs>
<linearGradient id="paint0_linear_1369_4157" x1="1109.16" y1="308.908" x2="998.114" y2="485.829" gradientUnits="userSpaceOnUse">
<stop stop-color="#39A2B9" stop-opacity="0.8"/>
<stop offset="0.898698" stop-color="#39A2B9" stop-opacity="0.31"/>
</linearGradient>
<linearGradient id="paint1_linear_1369_4157" x1="1068" y1="305.571" x2="919.183" y2="490.636" gradientUnits="userSpaceOnUse">
<stop stop-color="#39A2B9" stop-opacity="0.8"/>
<stop offset="0.898698" stop-color="#39A2B9" stop-opacity="0.31"/>
</linearGradient>
<linearGradient id="paint2_linear_1369_4157" x1="1026.17" y1="301.686" x2="825.597" y2="485.303" gradientUnits="userSpaceOnUse">
<stop stop-color="#39A2B9" stop-opacity="0.8"/>
<stop offset="0.898698" stop-color="#39A2B9" stop-opacity="0.31"/>
</linearGradient>
<linearGradient id="paint3_linear_1369_4157" x1="983.813" y1="297.24" x2="718.506" y2="457.073" gradientUnits="userSpaceOnUse">
<stop stop-color="#39A2B9" stop-opacity="0.8"/>
<stop offset="0.898698" stop-color="#39A2B9" stop-opacity="0.31"/>
</linearGradient>
<linearGradient id="paint4_linear_1369_4157" x1="941.117" y1="292.222" x2="612.972" y2="390.309" gradientUnits="userSpaceOnUse">
<stop stop-color="#39A2B9" stop-opacity="0.8"/>
<stop offset="0.898698" stop-color="#39A2B9" stop-opacity="0.31"/>
</linearGradient>
<linearGradient id="paint5_linear_1369_4157" x1="898.245" y1="286.624" x2="542.141" y2="286.624" gradientUnits="userSpaceOnUse">
<stop stop-color="#39A2B9" stop-opacity="0.8"/>
<stop offset="0.898698" stop-color="#39A2B9" stop-opacity="0.31"/>
</linearGradient>
<linearGradient id="paint6_linear_1369_4157" x1="855.377" y1="280.445" x2="527.232" y2="182.357" gradientUnits="userSpaceOnUse">
<stop stop-color="#39A2B9" stop-opacity="0.8"/>
<stop offset="0.898698" stop-color="#39A2B9" stop-opacity="0.31"/>
</linearGradient>
<linearGradient id="paint7_linear_1369_4157" x1="812.678" y1="273.686" x2="547.371" y2="113.853" gradientUnits="userSpaceOnUse">
<stop stop-color="#39A2B9" stop-opacity="0.8"/>
<stop offset="0.898698" stop-color="#39A2B9" stop-opacity="0.31"/>
</linearGradient>
<linearGradient id="paint8_linear_1369_4157" x1="770.327" y1="266.355" x2="569.759" y2="82.7385" gradientUnits="userSpaceOnUse">
<stop stop-color="#39A2B9" stop-opacity="0.8"/>
<stop offset="0.898698" stop-color="#39A2B9" stop-opacity="0.31"/>
</linearGradient>
<linearGradient id="paint9_linear_1369_4157" x1="728.49" y1="258.462" x2="579.67" y2="73.3972" gradientUnits="userSpaceOnUse">
<stop stop-color="#39A2B9" stop-opacity="0.8"/>
<stop offset="0.898698" stop-color="#39A2B9" stop-opacity="0.31"/>
</linearGradient>
<linearGradient id="paint10_linear_1369_4157" x1="687.331" y1="250.023" x2="576.284" y2="73.1023" gradientUnits="userSpaceOnUse">
<stop stop-color="#39A2B9" stop-opacity="0.8"/>
<stop offset="0.898698" stop-color="#39A2B9" stop-opacity="0.31"/>
</linearGradient>
<linearGradient id="paint11_linear_1369_4157" x1="647.011" y1="241.057" x2="562.941" y2="75.2221" gradientUnits="userSpaceOnUse">
<stop stop-color="#39A2B9" stop-opacity="0.8"/>
<stop offset="0.898698" stop-color="#39A2B9" stop-opacity="0.31"/>
</linearGradient>
<linearGradient id="paint12_linear_1369_4157" x1="607.686" y1="231.587" x2="543.027" y2="76.9003" gradientUnits="userSpaceOnUse">
<stop stop-color="#39A2B9" stop-opacity="0.8"/>
<stop offset="0.898698" stop-color="#39A2B9" stop-opacity="0.31"/>
</linearGradient>
<linearGradient id="paint13_linear_1369_4157" x1="569.501" y1="221.641" x2="519.077" y2="77.081" gradientUnits="userSpaceOnUse">
<stop stop-color="#39A2B9" stop-opacity="0.8"/>
<stop offset="0.898698" stop-color="#39A2B9" stop-opacity="0.31"/>
</linearGradient>
<linearGradient id="paint14_linear_1369_4157" x1="532.591" y1="211.249" x2="492.853" y2="75.4807" gradientUnits="userSpaceOnUse">
<stop stop-color="#39A2B9" stop-opacity="0.8"/>
<stop offset="0.898698" stop-color="#39A2B9" stop-opacity="0.31"/>
</linearGradient>
<linearGradient id="paint15_linear_1369_4157" x1="497.088" y1="200.447" x2="465.573" y2="72.1279" gradientUnits="userSpaceOnUse">
<stop stop-color="#39A2B9" stop-opacity="0.8"/>
<stop offset="0.898698" stop-color="#39A2B9" stop-opacity="0.31"/>
</linearGradient>
<linearGradient id="paint16_linear_1369_4157" x1="463.105" y1="189.27" x2="438.08" y2="67.1613" gradientUnits="userSpaceOnUse">
<stop stop-color="#39A2B9" stop-opacity="0.8"/>
<stop offset="0.898698" stop-color="#39A2B9" stop-opacity="0.31"/>
</linearGradient>
<linearGradient id="paint17_linear_1369_4157" x1="430.751" y1="177.76" x2="410.978" y2="60.7503" gradientUnits="userSpaceOnUse">
<stop stop-color="#39A2B9" stop-opacity="0.8"/>
<stop offset="0.898698" stop-color="#39A2B9" stop-opacity="0.31"/>
</linearGradient>
<linearGradient id="paint18_linear_1369_4157" x1="400.116" y1="165.959" x2="384.708" y2="53.0606" gradientUnits="userSpaceOnUse">
<stop stop-color="#39A2B9" stop-opacity="0.8"/>
<stop offset="0.898698" stop-color="#39A2B9" stop-opacity="0.31"/>
</linearGradient>
<linearGradient id="paint19_linear_1369_4157" x1="371.282" y1="153.913" x2="359.599" y2="44.2415" gradientUnits="userSpaceOnUse">
<stop stop-color="#39A2B9" stop-opacity="0.8"/>
<stop offset="0.898698" stop-color="#39A2B9" stop-opacity="0.31"/>
</linearGradient>
<linearGradient id="paint20_linear_1369_4157" x1="344.313" y1="141.667" x2="335.903" y2="34.4233" gradientUnits="userSpaceOnUse">
<stop stop-color="#39A2B9" stop-opacity="0.8"/>
<stop offset="0.898698" stop-color="#39A2B9" stop-opacity="0.31"/>
</linearGradient>
<linearGradient id="paint21_linear_1369_4157" x1="319.267" y1="129.271" x2="313.82" y2="23.7177" gradientUnits="userSpaceOnUse">
<stop stop-color="#39A2B9" stop-opacity="0.8"/>
<stop offset="0.898698" stop-color="#39A2B9" stop-opacity="0.31"/>
</linearGradient>
<linearGradient id="paint22_linear_1369_4157" x1="296.177" y1="116.775" x2="293.499" y2="12.2183" gradientUnits="userSpaceOnUse">
<stop stop-color="#39A2B9" stop-opacity="0.8"/>
<stop offset="0.898698" stop-color="#39A2B9" stop-opacity="0.31"/>
</linearGradient>
<linearGradient id="paint23_linear_1369_4157" x1="275.066" y1="104.227" x2="275.066" y2="-5.34058e-05" gradientUnits="userSpaceOnUse">
<stop stop-color="#39A2B9" stop-opacity="0.8"/>
<stop offset="0.898698" stop-color="#39A2B9" stop-opacity="0.31"/>
</linearGradient>
</defs>
</svg>
