<svg width="1119" height="248" viewBox="0 0 1119 248" fill="none" xmlns="http://www.w3.org/2000/svg">
<path opacity="0.01" d="M213.147 103.809C219.525 98.0626 228.738 93.0707 240.861 88.8412C253.337 84.4881 268.861 80.9556 287.449 78.2562C324.517 72.9808 370.052 71.3062 424.062 73.2425C472.612 74.983 510.473 78.5663 537.655 83.9883L537.787 84.0145L537.967 83.9653L611.702 63.9L613.212 63.4891L612.103 63.282C592.693 59.6576 568.198 56.4884 538.621 53.7737L538.619 53.7735C508.934 51.1821 477.09 49.277 443.087 48.0579C378.724 45.7505 319.589 46.4299 265.682 50.0979C211.781 53.7655 166.879 60.3682 130.991 69.9201C94.5076 79.447 69.6773 91.6219 56.7831 106.49C47.6936 116.971 46.0637 126.432 51.8203 134.863C57.5713 143.285 70.6981 150.69 91.1503 157.09C131.952 170.016 196.994 178.073 286.247 181.273C331.183 182.884 373.729 182.564 413.885 180.312C453.323 178.162 486.538 174.196 513.519 168.405C527.009 165.509 538.11 162.246 546.801 158.605C555.502 154.96 561.821 150.921 565.665 146.488C569.239 142.367 570.086 138.418 568.283 134.651C566.484 130.888 562.037 127.289 554.981 123.848L554.979 123.847C540.761 117.088 518.383 111.446 487.868 106.915C457.349 102.384 421.745 99.3894 381.057 97.9307C314.04 95.528 258.067 97.484 213.147 103.809ZM220.84 149.636L220.837 149.635C212.387 147.491 206.697 145.182 203.73 142.718C200.759 140.251 200.569 137.678 202.884 135.009C205.195 132.344 209.784 129.926 216.91 127.787C224.024 125.652 233.524 123.839 245.43 122.361C268.513 119.507 296.13 118.653 328.286 119.806C361.05 120.981 385.922 123.653 402.92 127.816C411.065 129.949 416.497 132.28 419.258 134.797C422.02 137.315 422.073 139.977 419.642 142.78C417.212 145.582 412.698 148.065 405.896 150.208C399.093 152.35 390.108 154.117 378.919 155.493C355.941 158.224 328.68 159.027 297.131 157.896C262.543 156.656 237.121 153.9 220.84 149.636Z" fill="#212121" stroke="white" stroke-width="0.86918"/>
<path opacity="0.01" d="M239.421 96.2544C257.391 84.7727 285.695 76.6618 324.587 71.9971C363.76 67.4005 409.829 66.5387 462.798 69.4245C510.413 72.0185 546.586 76.2585 571.334 82.1399L571.483 82.1753L571.722 82.121L653.777 63.4386L655.087 63.1403L654.254 62.955C636.468 58.9995 613.421 55.4079 585.117 52.1791L585.115 52.1788C556.651 49.071 525.743 46.6086 492.389 44.7916C429.257 41.3521 370.049 40.9809 314.768 43.68C259.492 46.3789 211.919 52.1619 172.063 61.0436C131.596 69.8963 101.714 81.576 82.5785 96.096C55.5623 116.596 59.919 133.57 95.1853 147.049C130.299 160.652 191.652 169.832 279.198 174.602C323.277 177.003 365.804 177.438 406.778 175.906C446.994 174.463 481.793 171.1 511.164 165.807C540.515 160.518 561.027 153.586 572.394 144.961C582.959 136.944 582.504 129.388 571.4 122.283L571.398 122.282C560.127 115.293 540.246 109.275 511.784 104.22C483.319 99.1642 449.129 95.5497 409.218 93.3753C343.492 89.7946 286.89 90.7499 239.421 96.2544ZM227.468 142.048L227.466 142.048C219.97 139.763 215.297 137.364 213.399 134.858C211.504 132.357 212.388 129.772 215.914 127.096C219.436 124.424 225.116 122.084 233.103 120.086C241.098 118.087 251.33 116.451 263.818 115.19C288.023 112.757 315.891 112.396 347.426 114.114C379.556 115.864 403.179 118.966 418.32 123.412C425.514 125.68 429.923 128.096 431.594 130.651C433.262 133.201 432.196 135.874 428.5 138.678C424.806 141.482 419.177 143.889 411.503 145.898C403.813 147.911 394.114 149.51 382.385 150.682C358.337 152.993 330.845 153.31 299.906 151.625C265.985 149.777 241.851 146.582 227.468 142.048Z" fill="#212121" stroke="white" stroke-width="0.86918"/>
<path opacity="0.01" d="M267.784 89.3735C290.704 78.1833 322.457 70.5923 363.21 66.6335C404.188 62.7502 450.437 62.7076 501.961 66.5205C548.278 69.9481 582.488 74.812 604.613 81.1074L604.777 81.1542L605.079 81.0964L694.831 63.9392L695.952 63.7249L695.326 63.5586C679.299 59.302 657.875 55.3149 631.061 51.5965L631.058 51.596C604.032 47.9953 574.293 44.9943 541.843 42.5929C480.42 38.0474 421.59 36.6281 365.352 38.3376C309.118 40.047 259.236 44.9663 215.717 53.1092C171.593 61.2141 136.881 72.3101 111.666 86.3956C93.8815 96.3304 84.2163 105.55 82.6868 114.047C81.1579 122.54 87.7594 130.299 102.446 137.33C102.446 137.33 102.446 137.33 102.446 137.33L267.784 89.3735ZM267.784 89.3735C317.44 84.7338 374.234 84.7871 438.162 89.5179C476.994 92.3916 509.511 96.5989 535.706 102.141C561.898 107.682 579.129 114.032 587.365 121.196L587.366 121.197C595.393 128.482 592.57 136.004 578.694 143.756C563.76 152.098 540.425 158.636 508.876 163.391C477.337 168.145 441.219 170.88 400.529 171.605L267.784 89.3735ZM236.265 134.79L236.262 134.789C223.271 129.965 221.799 124.91 231.228 119.642C235.948 117.006 242.67 114.764 251.475 112.917C260.295 111.067 271.182 109.62 284.154 108.585C309.295 106.592 337.2 106.726 367.872 108.995C399.123 111.308 421.316 114.816 434.486 119.51C446.883 124.287 447.88 129.437 438.018 134.945C428.159 140.453 411.22 144.21 386.833 146.131C361.9 148.007 334.389 147.836 304.297 145.609C271.303 143.167 248.641 139.558 236.265 134.79Z" fill="#212121" stroke="white" stroke-width="0.86918"/>
<path opacity="0.0114286" d="M297.956 83.2042C325.674 72.4156 360.63 65.4071 402.93 62.1853C445.398 59.0443 491.474 59.8207 541.158 64.5312C585.823 68.766 617.808 74.2164 637.143 80.8774L637.317 80.9375L637.686 80.8784L734.451 65.3769L735.409 65.2234L734.937 65.0726C720.793 60.5469 701.155 56.1945 676.033 52.0145L676.03 52.0139C650.647 47.9474 622.304 44.4305 591.004 41.4629C531.757 35.8457 473.75 33.3888 416.983 34.0953C360.217 34.8019 308.404 38.8197 261.559 46.1609C214.131 53.4527 174.845 63.8827 143.743 77.4438C121.8 87.0115 108.236 96.0127 103.074 104.443C97.9137 112.871 101.16 120.718 112.78 127.985C135.755 142.629 188.361 153.839 270.52 161.628C311.888 165.55 353.411 167.481 395.088 167.419C435.944 167.418 473.108 165.333 506.572 161.155C540.06 156.974 566.051 150.88 584.435 142.865C601.513 135.418 607.566 127.987 602.69 120.583L602.689 120.582C597.554 113.298 583.106 106.665 559.382 100.679C535.657 94.692 505.061 89.9236 467.602 86.3721C405.962 80.528 349.413 79.4661 297.956 83.2042ZM247.094 127.9L247.091 127.899C236.243 122.874 236.884 117.806 248.628 112.686C260.367 107.567 279.454 104.178 306.187 102.577C332.069 101.038 359.797 101.664 389.372 104.468C419.505 107.325 440.098 111.211 451.198 116.118C461.477 121.085 460.318 126.239 448.042 131.592C435.767 136.944 417.222 140.381 392.163 141.86C366.537 143.285 339.217 142.628 310.203 139.877C278.387 136.861 257.372 132.865 247.094 127.9Z" fill="#212121" stroke="white" stroke-width="0.86918"/>
<path opacity="0.0142857" d="M329.619 77.7797C361.928 67.494 399.812 61.1252 443.334 58.6648C486.97 56.2892 532.521 57.878 579.987 63.4499C622.66 68.4591 652.176 74.4539 668.575 81.4292L668.753 81.5049L669.19 81.4467L772.231 67.7189L773.051 67.6096L772.699 67.4715C760.544 62.7109 742.842 58.026 719.604 53.416L719.6 53.4152C696.053 48.9137 669.323 44.9073 639.409 41.3959C582.788 34.7493 526.046 31.2731 469.18 30.9709C412.311 30.6688 358.966 33.7543 309.156 40.2367C258.795 46.6587 215.227 56.3461 178.47 69.2904C126.576 87.5655 109.076 104.163 126.01 119.063C142.625 134.062 190.238 146.165 268.757 155.382C308.294 160.023 348.84 162.683 390.395 163.36C431.109 164.083 469.035 162.664 504.166 159.094C539.324 155.522 567.782 149.916 589.478 142.276C609.631 135.179 618.849 127.894 617.165 120.431L617.164 120.429C615.172 113.081 603.619 106.216 582.545 99.8299C561.47 93.4438 533.028 88.15 497.226 83.9474C438.346 77.0356 382.477 74.9732 329.619 77.7797ZM259.784 121.417L259.782 121.415C251.142 116.226 253.915 111.181 267.885 106.261C281.851 101.343 302.372 98.3078 329.644 97.1882C356.07 96.1147 383.409 97.2291 411.659 100.545C440.443 103.924 459.28 108.158 468.229 113.239C476.327 118.361 472.998 123.484 458.4 128.625C443.802 133.766 423.803 136.859 398.247 137.886C372.125 138.851 345.205 137.713 317.49 134.46C287.098 130.892 267.889 126.541 259.784 121.417Z" fill="#212121" stroke="white" stroke-width="0.86918"/>
<path opacity="0.0171429" d="M362.455 73.1272C399.106 63.4353 439.622 57.7579 484.038 56.0781C528.508 54.4854 573.185 56.8742 618.067 63.264C658.421 69.009 685.243 75.5017 698.584 82.7378L698.756 82.8313L699.263 82.776L807.796 70.9264L808.5 70.8496L808.242 70.7224C798.17 65.7629 782.54 60.7809 761.362 55.7756L761.358 55.7745C739.826 50.8719 714.91 46.4063 686.611 42.3775C633.046 34.7516 577.997 30.2821 521.464 28.9731C464.924 27.664 410.452 29.7935 358.064 35.3676C305.158 40.8709 257.635 49.7444 215.5 61.9794C156.016 79.2518 131.466 95.4673 141.949 110.612C152.074 125.851 194.33 138.755 268.614 149.331C306.019 154.656 345.28 158.025 386.399 159.437C426.662 160.879 465.061 160.136 501.587 157.203C538.138 154.268 568.853 149.192 593.701 141.977C616.78 135.275 629.081 128.19 630.601 120.727L630.601 120.725C631.766 113.37 623.201 106.324 604.938 99.5866C586.675 92.8492 560.602 87.0699 526.729 82.2476C471.057 74.3218 416.299 71.2748 362.455 73.1272ZM274.157 115.375L274.155 115.373C267.78 110.057 272.682 105.072 288.77 100.4C304.854 95.7299 326.643 93.0717 354.262 92.4404C381.031 91.8396 407.77 93.433 434.478 97.2353C461.692 101.11 478.631 105.658 485.362 110.875C491.228 116.116 485.735 121.169 468.929 126.049C452.123 130.929 430.831 133.654 404.957 134.224C378.538 134.722 352.226 133.113 326.024 129.383C297.288 125.292 280.03 120.62 274.157 115.375Z" fill="#212121" stroke="white" stroke-width="0.86918"/>
<path opacity="0.02" d="M396.137 69.2667C436.842 60.2518 479.672 55.3116 524.644 54.4254C569.612 53.6273 613.072 56.7973 655.026 63.9549C692.751 70.3911 716.677 77.3314 726.86 84.7728L727.016 84.8868L727.594 84.8363L840.794 74.9551L841.397 74.9024L841.216 74.785C833.306 69.6642 819.867 64.4226 800.911 59.0598L800.905 59.0583C781.552 53.7915 758.64 48.9003 732.171 44.3845C682.067 35.8365 629.131 30.407 573.358 28.1006C517.577 25.7938 462.396 26.9511 407.831 31.5745C352.787 36.1178 301.667 44.1116 254.469 55.548C187.842 71.6923 156.441 87.4039 160.393 102.676C163.948 118.039 200.522 131.647 270.008 143.502C304.999 149.471 342.678 153.525 383.048 155.66C422.556 157.811 461.135 157.751 498.774 155.477C536.432 153.202 569.176 148.691 596.991 141.952C622.825 135.692 638.107 128.858 642.819 121.453L642.82 121.451C647.132 114.146 641.621 106.973 626.31 99.9352C610.999 92.8973 587.494 86.6757 555.806 81.2697C503.767 72.3913 450.543 68.3833 396.137 69.2667ZM290.025 109.805L290.024 109.803C285.954 104.397 292.965 99.5104 311.044 95.1297C329.118 90.7501 352.002 88.4891 379.771 88.3497C406.678 88.2257 432.612 90.2853 457.573 94.5436C483.008 98.883 497.92 103.711 502.387 109.024C505.982 114.346 498.351 119.289 479.47 123.864C460.589 128.439 438.172 130.777 412.166 130.886C385.65 130.914 360.148 128.847 335.66 124.669C308.801 120.087 293.625 115.131 290.025 109.805Z" fill="#212121" stroke="white" stroke-width="0.86918"/>
<path opacity="0.0228571" d="M430.312 66.2121C484.845 66.3051 536.123 71.2427 584.136 81.0049C613.399 86.9545 634.157 93.5721 646.398 100.858C658.639 108.143 661.052 115.387 653.626 122.587L653.625 122.588C645.759 129.878 627.617 136.411 599.222 142.184C568.647 148.401 534.119 152.311 495.642 153.91C457.181 155.508 418.718 154.884 380.266 152.04C340.951 149.197 305.138 144.489 272.827 137.92C208.661 124.874 178.053 110.664 181.098 95.2943C183.708 80.0132 221.712 64.9239 294.98 50.0271C346.884 39.474 401.216 32.4192 457.979 28.8698C457.98 28.8697 457.98 28.8697 457.981 28.8697L458.158 28.9867C514.373 25.3558 569.719 25.1805 624.196 28.4608C678.673 31.741 729.013 38.0781 775.215 47.472C799.624 52.4347 820.329 57.7075 837.329 63.2903L430.312 66.2121ZM430.312 66.2121C474.748 57.95 519.553 53.7871 564.735 53.701L430.312 66.2121ZM307.165 104.734L307.165 104.732C305.429 99.2753 314.505 94.5248 334.433 90.4732C354.356 86.4224 378.155 84.5759 405.871 84.9291C432.715 85.2822 457.644 87.7915 480.664 92.4718C504.123 97.2415 516.898 102.31 519.069 107.679C520.369 113.045 510.647 117.84 489.84 122.071C469.032 126.301 445.666 128.233 419.717 127.881C393.304 127.439 368.808 124.93 346.224 120.338C321.451 115.301 308.467 110.1 307.165 104.734Z" fill="#212121" stroke="white" stroke-width="0.86918"/>
<path opacity="0.0257143" d="M611.424 81.4371C567.799 70.8664 518.865 65.0381 464.647 63.9694C512.459 56.5283 558.885 53.1762 603.927 53.891C648.88 54.6922 688.919 59.3445 724.074 67.8628C755.697 75.5254 773.309 83.1954 776.979 90.8759L777.058 91.0414L777.797 91.0061L897.716 85.2716L898.156 85.2506L898.093 85.1517C894.675 79.8259 885.91 74.1851 871.812 68.2303L871.805 68.2278C857.235 62.3538 838.836 56.7242 816.611 51.339C774.54 41.1448 727.009 33.9235 674.022 29.6805C621.029 25.4369 565.698 24.6304 508.047 27.2555C449.995 29.7847 392.862 35.848 336.644 45.439C257.29 58.9774 212.976 73.3311 203.828 88.5047C194.205 103.762 218.608 118.466 276.968 132.608C306.355 139.728 340.032 145.056 377.995 148.586C415.097 152.102 453.149 153.405 492.138 152.494C531.138 151.584 567.19 148.302 600.295 142.654C631.039 137.408 651.901 131.226 662.857 124.106L662.858 124.105C673.339 117.067 674.045 109.807 664.969 102.329C655.894 94.851 638.041 87.8865 611.424 81.4371ZM325.367 100.182L325.368 100.18C325.977 94.713 337.061 90.1357 358.68 86.4474C380.295 82.7597 404.823 81.3421 432.283 82.185C458.865 83.0121 482.596 85.9513 503.496 91.0155C524.797 96.1769 535.342 101.447 535.204 106.831C534.198 112.201 522.451 116.811 499.881 120.661C477.309 124.512 453.176 126.023 427.473 125.212C401.36 124.305 378.061 121.373 357.557 116.404C335.061 110.954 324.365 105.548 325.367 100.182Z" fill="#212121" stroke="white" stroke-width="0.86918"/>
<path opacity="0.0285714" d="M637.367 82.5468C598.459 71.249 552.25 64.5764 498.794 62.5408C549.597 55.9815 597.275 53.4674 641.83 54.9772C686.272 56.5721 724.129 61.9143 755.462 71.0125C783.656 79.1991 797.904 87.1453 798.267 94.8583L798.277 95.0568L799.112 95.0322L921.033 91.4446L921.405 91.4337L921.387 91.3442C920.264 85.9766 913.948 80.1995 902.451 74.0142L902.444 74.0109C890.441 67.898 874.517 61.9607 854.675 56.1994C817.112 45.292 772.833 37.252 721.85 32.0845C670.866 26.9169 616.096 25.134 557.556 26.727C498.656 28.2175 439.156 33.244 379.051 41.8008C294.211 53.8793 243.928 67.3895 228.314 82.3395C212.189 97.3667 230.188 112.455 282.304 127.588C308.548 135.208 339.835 141.116 376.156 145.308C411.624 149.469 448.974 151.44 488.19 151.224C527.417 151.008 564.722 148.379 600.107 143.341C632.968 138.663 656.39 132.876 670.351 125.98L670.352 125.979C683.805 119.156 687.623 111.937 681.786 104.323C675.948 96.7094 661.138 89.4494 637.367 82.5468ZM344.398 96.1688L344.399 96.1669C347.35 90.7299 360.363 86.3618 383.505 83.0671C406.644 79.7729 431.711 78.7954 458.712 80.122C484.835 81.4169 507.183 84.7626 525.799 90.1684C544.775 95.6784 553.018 101.108 550.573 106.468C547.268 111.801 533.579 116.19 509.422 119.63C485.262 123.069 460.549 124.147 435.282 122.883C409.662 121.517 387.741 118.186 369.476 112.883C349.434 107.063 341.099 101.496 344.398 96.1688Z" fill="#212121" stroke="white" stroke-width="0.86918"/>
<path opacity="0.0314286" d="M661.686 84.3075C627.785 72.3688 584.666 64.9062 532.425 61.9209C585.806 56.2969 634.354 54.6411 678.073 56.9338C721.675 59.311 757.056 65.3021 784.323 74.9043C808.867 83.548 819.651 91.7078 816.707 99.3958L816.616 99.634L817.566 99.6231L940.561 98.2097L940.872 98.2061L940.89 98.1264C942.073 92.7583 938.257 86.8885 929.448 80.5189L929.442 80.5146C920.099 74.2081 906.771 68.0067 889.462 61.9112C856.689 50.3697 815.993 41.5703 767.406 35.5173C718.824 29.465 665.032 26.7194 606.048 27.269C546.748 27.71 485.332 31.662 421.797 39.1201C332.113 49.6479 276.245 62.2129 254.288 76.8256C231.789 91.506 243.234 106.864 288.714 122.88C311.616 130.945 340.28 137.39 374.68 142.212C408.242 146.988 444.603 149.612 483.748 150.092C522.903 150.571 561.179 148.614 598.578 144.224C633.307 140.147 659.11 134.8 675.967 128.18L675.969 128.179C692.288 121.623 699.19 114.5 696.637 106.809C694.084 99.117 682.435 91.6145 661.686 84.3075ZM364.029 92.7081L364.03 92.7063C369.304 87.3397 384.15 83.2152 408.637 80.3408C433.12 77.4667 458.533 76.9372 484.874 78.7381C510.349 80.4914 531.136 84.2175 547.322 89.9176C563.824 95.7288 569.713 101.275 564.979 106.573C559.398 111.83 543.867 115.963 518.309 118.963C492.749 121.963 467.647 122.599 443.003 120.892C418.062 119.076 397.692 115.373 381.811 109.781C364.381 103.642 358.458 97.9575 364.029 92.7081Z" fill="#212121" stroke="white" stroke-width="0.86918"/>
<path opacity="0.0342857" d="M684.104 86.6887C655.461 74.1995 615.776 66.009 565.209 62.1002C620.722 57.458 669.743 56.6736 712.278 59.7297C754.725 62.8725 787.354 69.467 810.343 79.4908C831.047 88.5181 838.297 96.8274 832.069 104.434L831.834 104.721L832.925 104.728L956.058 105.499L956.314 105.501L956.36 105.432C959.84 100.105 958.555 94.1869 952.506 87.6801L952.5 87.6746C945.89 81.2209 935.26 74.8001 920.614 68.4138C892.876 56.3194 856.069 46.8254 810.253 39.9333C764.448 33.0427 712.047 29.3556 653.066 28.8579C593.815 28.2466 530.948 31.0946 464.465 37.3978C370.618 46.2955 309.591 57.8209 281.461 71.9851C252.769 86.2041 257.553 101.714 296.055 118.501C315.446 126.957 341.275 133.892 373.488 139.307C404.883 144.661 439.975 147.918 478.751 149.089C517.538 150.26 556.495 148.989 595.623 145.279C631.959 141.834 659.946 136.966 679.569 130.672L679.571 130.672C698.631 124.432 708.561 117.46 709.314 109.752C710.069 102.041 701.677 94.3507 684.104 86.6887ZM384.017 89.8108L384.019 89.8092C391.578 84.5533 408.149 80.7047 433.79 78.2737C459.427 75.8429 484.989 75.7657 510.472 78.0277C535.118 80.2275 554.181 84.3052 567.809 90.2472C581.706 96.3064 585.212 101.927 578.221 107.123C570.402 112.265 553.145 116.11 526.385 118.647C499.622 121.185 474.323 121.374 450.489 119.234C426.404 116.982 407.746 112.935 394.375 107.105C379.695 100.704 376.212 94.9454 384.017 89.8108Z" fill="#212121" stroke="white" stroke-width="0.86918"/>
<path opacity="0.0371429" d="M704.364 89.6543C681.188 76.708 645.26 67.8605 596.834 63.0641C654.006 59.4421 703.093 59.5351 744.102 63.3284C785.086 67.2159 814.703 74.3643 833.238 84.7186C849.94 94.0483 853.62 102.443 844.15 109.914L843.709 110.261L844.982 110.292L967.315 113.243L967.523 113.248L967.587 113.189C973.336 107.945 974.597 102.025 971.356 95.429L971.355 95.4256L971.352 95.4221C967.53 88.8687 959.682 82.2735 947.807 75.64C925.312 63.0736 892.665 52.9548 849.983 45.2777C807.309 37.6023 756.699 33.0018 698.168 31.4612C639.415 29.8025 575.575 31.5251 506.648 36.6259C409.349 43.8262 343.629 54.225 309.543 67.8332C274.891 81.4796 272.953 97.0209 304.184 114.467C319.921 123.258 342.724 130.634 372.496 136.6C401.478 142.49 435.033 146.356 473.146 148.209C511.271 150.062 550.614 149.486 591.176 146.485C628.842 143.697 658.8 139.345 681.04 133.425L681.042 133.424C702.696 127.548 715.574 120.781 719.63 113.115C723.687 105.447 718.63 97.6233 704.364 89.6543ZM404.121 87.4839L404.123 87.4825C413.913 82.3771 432.083 78.8346 458.681 76.8663C485.276 74.8981 510.791 75.2742 535.223 77.981C558.869 80.6134 576.053 85.0117 587.016 91.1362C598.199 97.3834 599.32 103.035 590.114 108.095C580.114 113.082 561.261 116.609 533.503 118.663C505.743 120.718 480.442 120.458 457.599 117.902C434.535 115.228 417.742 110.868 406.985 104.859C395.169 98.2582 394.129 92.4681 404.121 87.4839Z" fill="#212121" stroke="white" stroke-width="0.86918"/>
<path opacity="0.04" d="M722.224 93.1639C704.686 79.8563 672.816 70.4322 627.003 64.7946C685.326 62.2229 734.056 63.1914 773.203 67.6879C812.428 72.2943 838.797 79.9445 852.747 90.5295C865.321 100.071 865.431 108.487 852.78 115.771L852.042 116.195L853.551 116.259L974.154 121.366L974.318 121.373L974.393 121.325C982.366 116.204 986.162 110.329 985.761 103.694L985.761 103.69L985.76 103.686C984.76 97.081 979.761 90.3562 970.748 83.517C953.668 70.5565 925.422 59.8877 886.213 51.4879C847 43.0872 798.566 37.6085 740.927 35.037C683.118 32.344 618.79 32.9286 547.944 36.7882C447.935 42.2367 378.02 51.4303 338.241 64.3793C318.057 70.869 305.82 77.9727 301.581 85.6998C297.339 93.4332 301.106 101.8 312.954 110.79C324.915 119.866 344.526 127.63 371.616 134.097C397.959 140.478 429.72 144.922 466.882 147.443C504.057 149.964 543.489 150.088 585.176 147.817C623.888 145.708 655.59 141.903 680.275 136.401L680.277 136.401C704.36 130.933 720.085 124.422 727.41 116.858C734.734 109.296 733.073 101.396 722.224 93.1639ZM424.094 85.731L424.096 85.7298C436.046 80.8137 455.678 77.6052 483.028 76.1152C510.376 74.6253 535.646 75.4521 558.841 78.5837C581.325 81.6326 596.487 86.3198 604.71 92.5595C613.101 98.9266 611.855 104.57 600.487 109.459C588.378 114.254 568.072 117.434 539.531 118.989C510.987 120.544 485.879 119.838 464.201 116.885C442.317 113.804 427.527 109.163 419.459 103.041C410.59 96.3115 411.974 90.531 424.094 85.731Z" fill="#212121" stroke="white" stroke-width="0.86918"/>
<path opacity="0.0428571" d="M655.401 67.2694C676.183 70.3914 693.329 74.3312 706.817 79.1011C721.139 84.1656 731.395 90.188 737.453 97.173C744.788 105.63 743.01 113.544 732.488 120.937C721.953 128.339 703.503 134.545 677.174 139.564L677.172 139.565C650.229 144.607 617.023 147.835 577.56 149.249C535.063 150.773 495.842 149.951 459.898 146.781C423.966 143.612 394.241 138.624 370.741 131.803C346.558 124.889 330.28 116.795 322.201 107.479C314.207 98.2607 314.066 89.8389 321.603 82.2141C329.136 74.5929 344.367 67.7354 367.249 61.6297M655.401 67.2694L367.631 61.9444M655.401 67.2694C714.341 65.768 762.287 67.6012 799.249 72.7591M655.401 67.2694L799.249 72.7591M367.249 61.6297C367.25 61.6296 367.25 61.6296 367.25 61.6295L367.631 61.9444M367.249 61.6297C367.249 61.6297 367.249 61.6297 367.249 61.6297L367.631 61.9444M367.249 61.6297C412.418 49.4374 485.997 41.5181 587.958 37.8627C660.186 35.2733 724.514 35.831 780.942 39.5377M367.631 61.9444C412.756 49.7638 486.293 41.8461 588.243 38.1911C660.457 35.6021 724.764 36.1601 781.162 39.865M780.942 39.5377C780.941 39.5377 780.941 39.5377 780.94 39.5376L781.162 39.865M780.942 39.5377C837.251 43.1204 883.141 49.4353 918.594 58.4963C954.013 67.5486 977.65 78.6862 989.167 91.9668C995.244 98.9739 997.34 105.784 995.504 112.388L995.502 112.393L995.5 112.398C993.054 119.019 986.751 124.805 976.619 129.762L976.54 129.801L976.412 129.793L858.457 122.568L856.653 122.458L857.809 121.941C873.567 114.895 876.998 106.516 868.625 96.861C863.982 91.5073 855.954 86.811 844.395 82.7793C832.826 78.7437 817.785 75.3989 799.249 72.7591M780.942 39.5377L781.162 39.865M781.162 39.865L799.249 72.7591M443.677 84.5497L443.68 84.5488C457.7 79.86 478.645 77.0106 506.536 76.0107C534.426 75.0108 559.258 76.2824 581.036 79.8154C591.573 81.5319 600.134 83.6275 606.742 86.0887C613.337 88.5451 617.937 91.3455 620.662 94.4879C623.447 97.699 623.943 100.695 622.055 103.484C620.163 106.279 615.886 108.85 609.178 111.184C595.051 115.749 573.447 118.558 544.34 119.602C515.232 120.646 490.51 119.496 470.164 116.168C459.932 114.441 451.613 112.353 445.185 109.918C438.768 107.488 434.28 104.731 431.607 101.647C428.66 98.2498 428.136 95.1283 430.119 92.274C432.108 89.4123 436.611 86.8333 443.677 84.5497Z" fill="#212121" stroke="white" stroke-width="0.86918"/>
<path opacity="0.0457143" d="M727.023 83.0142C715.777 78.0878 700.634 73.9045 681.616 70.4521C740.675 70.0251 787.445 72.7025 821.94 78.4766C839.278 81.4357 852.835 85.0359 862.635 89.2631C872.44 93.4926 878.371 98.2966 880.673 103.647C882.757 108.49 882.069 112.974 878.504 117.105C874.933 121.242 868.492 125.001 859.14 128.369L859.56 129.144L973.969 138.431L974.071 138.44L974.151 138.408C986.364 133.652 995.122 128.002 1000.4 121.447L1000.4 121.442L1000.41 121.436C1005.07 114.887 1005.92 108.042 1002.85 100.908C999.938 94.1511 993.764 87.8868 984.416 82.1186C975.077 76.3556 962.54 71.0675 946.831 66.2425C915.406 56.5904 872.406 49.4873 817.851 44.9208C763.232 40.2287 699.392 38.5332 626.331 39.8329C523.194 41.6675 446.507 48.2526 396.292 59.5962C370.884 65.2722 352.778 71.8318 342.01 79.2882C331.247 86.7402 327.736 95.1492 331.778 104.542C333.821 109.291 338.054 113.762 344.397 117.949C350.732 122.13 359.196 126.046 369.765 129.706C390.244 136.915 417.71 142.409 452.141 146.202C486.583 149.996 525.298 151.51 568.283 150.745C608.199 150.035 642.657 147.409 671.655 142.864L671.656 142.864C700.032 138.331 721.065 132.477 734.728 125.292C741.558 121.701 746.257 117.945 748.794 114.015C751.333 110.08 751.715 105.95 749.857 101.634C746.789 94.504 739.102 88.3056 727.023 83.0142ZM462.623 83.9223L462.625 83.9216C478.611 79.4967 500.706 77.0289 528.925 76.5269C557.142 76.025 581.342 77.732 601.533 81.6394C611.301 83.5372 618.937 85.7784 624.467 88.3487C629.998 90.9188 633.33 93.7716 634.672 96.889C636.044 100.079 635.283 103.051 632.201 105.801C629.117 108.553 623.75 111.04 616.062 113.248C600.022 117.548 577.288 119.964 547.841 120.488C518.392 121.012 494.248 119.429 475.396 115.751C465.937 113.848 458.538 111.619 453.175 109.078C447.813 106.537 444.573 103.73 443.257 100.671C441.803 97.2929 442.589 94.1949 445.794 91.3819C449.003 88.565 454.599 86.0734 462.623 83.9223Z" fill="#212121" stroke="white" stroke-width="0.86918"/>
<path opacity="0.0485714" d="M744.467 87.5035C735.436 82.4301 722.258 78.019 704.957 74.2589C763.817 74.8893 809.156 78.3842 840.99 84.7365C856.996 87.992 868.961 91.8196 876.914 96.2057C884.879 100.599 888.705 105.483 888.705 110.818C888.705 115.651 886.113 120.095 880.789 124.148C875.458 128.207 867.427 131.839 856.665 135.028L856.745 135.877L966.737 147.157L966.827 147.166L966.913 147.139C981.116 142.617 992.261 137.145 1000.33 130.709L1000.33 130.703L1000.34 130.698C1007.79 124.257 1011.58 117.442 1011.58 110.254C1011.58 103.445 1008.1 97.0838 1001.27 91.1725C994.431 85.2654 984.21 79.776 970.631 74.6918C943.467 64.5209 903.678 56.6832 851.29 51.1675C798.892 45.5255 736.023 42.7053 662.684 42.7053C559.153 42.7053 479.939 47.9064 425.056 58.3164C397.313 63.5201 376.467 69.7333 362.546 76.9691C348.642 84.1957 341.515 92.5165 341.515 101.982C341.515 106.774 343.827 111.314 348.352 115.598C352.872 119.878 359.625 123.928 368.582 127.76C385.89 135.303 410.893 141.263 443.565 145.651C476.248 150.041 514.165 152.235 557.313 152.235C597.38 152.235 632.831 150.229 663.665 146.215L663.666 146.215C693.875 142.203 717.334 136.745 734.022 129.831C742.363 126.375 748.655 122.717 752.867 118.845C757.084 114.97 759.247 110.852 759.247 106.494C759.247 99.3013 754.222 92.9832 744.467 87.5035ZM480.691 83.7946L480.693 83.7939C498.519 79.6684 521.59 77.6013 549.919 77.6013C578.245 77.6013 601.625 79.7308 620.068 83.9819C628.987 86.0461 635.636 88.4149 640.045 91.0744C644.461 93.7378 646.536 96.6307 646.536 99.726C646.536 102.895 644.524 105.834 640.269 108.523C636.015 111.211 629.6 113.595 620.992 115.658C603.166 119.658 579.479 121.663 549.919 121.663C520.356 121.663 496.978 119.658 479.771 115.659C471.161 113.595 464.744 111.242 460.489 108.615C456.228 105.984 454.225 103.139 454.225 100.102C454.225 96.7434 456.316 93.6798 460.722 90.93C465.128 88.1797 471.774 85.7958 480.691 83.7946Z" fill="#212121" stroke="white" stroke-width="0.86918"/>
<path opacity="0.0514286" d="M758.879 92.5558C752.011 87.3072 740.672 82.6528 724.891 78.5814C783.417 80.246 827.19 84.534 856.229 91.4383C870.777 94.9646 881.053 98.9888 887.094 103.498C893.138 108.009 894.876 112.95 892.574 118.3C890.49 123.143 885.982 127.535 878.943 131.477C871.893 135.425 862.339 138.9 850.254 141.886L850.005 142.664L954.744 155.85L954.837 155.861L954.943 155.834C971.032 151.58 984.483 146.325 995.277 140.057L995.286 140.052L995.295 140.046C1005.48 133.761 1012.16 127.05 1015.23 119.916C1018.14 113.159 1017.41 106.772 1013.13 100.761C1008.85 94.7561 1001.02 89.1058 989.672 83.7995C966.968 73.1846 930.688 64.6712 880.861 58.2479C831.08 51.6987 769.657 47.775 696.597 46.4754C593.459 44.6408 512.313 48.4183 453.174 57.8168C423.304 62.5094 399.87 68.3301 382.897 75.293C365.934 82.2518 355.294 90.4091 351.253 99.8015C349.209 104.551 349.559 109.103 352.23 113.45C354.898 117.792 359.889 121.948 367.171 125.925C381.182 133.747 403.538 140.128 434.207 145.079C464.885 150.031 501.719 152.889 544.705 153.654C584.62 154.364 620.798 152.993 653.237 149.541L653.238 149.541C685.055 146.079 710.767 141.057 730.359 134.464C740.152 131.168 747.989 127.635 753.843 123.854C759.705 120.068 763.607 116.015 765.464 111.699C768.532 104.569 766.255 98.1933 758.879 92.5558ZM497.72 84.1152L497.723 84.1145C517.246 80.3213 541.112 78.671 569.331 79.173C597.548 79.6749 619.923 82.2104 636.47 86.7713C644.468 88.9852 650.074 91.4619 653.326 94.1884C656.577 96.9147 657.422 99.8418 656.081 102.959C654.708 106.149 651.42 109.049 646.036 111.649C640.649 114.25 633.239 116.51 623.782 118.413C604.314 122.081 579.861 123.658 550.414 123.134C520.966 122.61 498.54 120.199 483.116 115.911C475.426 113.703 470.043 111.246 466.932 108.555C463.821 105.864 463.027 102.985 464.343 99.926C465.797 96.5475 469.218 93.5244 474.776 90.8672C480.343 88.2065 487.982 85.9503 497.72 84.1152Z" fill="#212121" stroke="white" stroke-width="0.86918"/>
<path opacity="0.0542857" d="M741.572 83.385C755.849 87.764 765.333 92.6584 769.985 98.0787C774.923 103.834 774.43 110.206 768.373 117.191C761.038 125.648 746.054 132.962 723.732 139.177C701.379 145.4 673.604 149.948 640.419 152.834L640.417 152.834C606.616 155.699 569.984 156.423 530.521 155.008C488.024 153.484 452.55 149.985 424.106 144.506C395.672 139.03 376.13 132.276 365.522 124.232C354.428 116.053 352.748 107.315 360.828 97.9988C368.822 88.7808 382.856 80.8571 402.765 74.2162C422.664 67.5785 448.512 62.1937 480.285 58.0475M741.572 83.385L480.114 58.3697M741.572 83.385C799.483 86.0729 841.454 91.1296 867.511 98.5469M741.572 83.385L867.511 98.5469M480.285 58.0475C480.285 58.0474 480.286 58.0474 480.286 58.0473L480.114 58.3697M480.285 58.0475C480.285 58.0475 480.285 58.0475 480.285 58.0475L480.114 58.3697M480.285 58.0475C543.239 49.7315 625.702 47.4065 727.664 51.0619C799.891 53.6513 859.402 58.6487 906.191 66.0558M480.114 58.3697C543.008 50.0617 625.429 47.7352 727.379 51.3902C799.593 53.9791 859.083 58.9753 905.848 66.3787M906.191 66.0558C906.191 66.0558 906.19 66.0557 906.19 66.0557L905.848 66.3787M906.191 66.0558C953.078 73.3382 985.578 82.4634 1003.65 93.4434C1021.71 104.413 1025.18 116.522 1013.66 129.803C1007.59 136.81 998.102 143.355 985.266 149.433L985.256 149.438L985.246 149.443C971.81 155.494 956.155 160.492 938.295 164.446L938.155 164.477L938.048 164.461L839.36 149.469L837.851 149.24L839.807 148.835C866.466 143.31 883.785 135.675 892.159 126.02C896.802 120.666 897.157 115.695 893.078 111.102C888.995 106.505 880.487 102.316 867.511 98.5469M906.191 66.0558L905.848 66.3787M905.848 66.3787L867.511 98.5469M513.548 84.9L513.552 84.8993C534.615 81.4683 559.089 80.2472 586.981 81.2471C614.87 82.247 636.065 85.1687 650.587 90.0031C657.602 92.3488 662.121 94.9134 664.19 97.6856C666.255 100.452 665.867 103.404 663.142 106.546C660.357 109.757 655.783 112.607 649.317 115.097C642.838 117.592 634.495 119.71 624.265 121.437C603.31 124.744 578.283 125.882 549.177 124.838C520.068 123.795 498.77 120.996 485.251 116.453C478.541 114.119 474.235 111.579 472.29 108.843C470.349 106.114 470.77 103.21 473.444 100.127C476.391 96.7296 481.149 93.7599 487.814 91.2157C494.497 88.6649 503.067 86.5545 513.548 84.9Z" fill="#212121" stroke="white" stroke-width="0.86918"/>
<path opacity="0.0571429" d="M767.86 122.911C785.398 109.604 780.973 98.2023 755.161 88.6626C811.994 92.3647 851.814 98.1573 874.659 106.031C897.301 114.008 901.324 123.314 887.375 133.899C874.8 143.441 854.198 150.74 825.331 155.762L823.648 156.055L824.797 156.263L916.683 172.947L916.808 172.969L916.992 172.935C936.489 169.311 954.227 164.608 970.194 158.822L970.205 158.818L970.215 158.815C985.59 152.993 997.799 146.661 1006.81 139.822C1023.89 126.861 1025.67 114.751 1012.37 103.49C999.066 92.2284 970.594 82.5599 927.002 74.4734C883.56 66.2643 826.413 60.231 755.567 56.3713C655.558 50.9229 572.401 51.7772 506.107 58.9474C472.668 62.5158 444.602 67.4237 421.928 73.6847C399.237 79.9508 381.924 87.5795 370.077 96.5694C358.116 105.645 356.006 114.363 363.562 122.718C370.684 130.922 387.262 137.999 413.247 143.96C439.241 149.923 473.085 154.039 514.773 156.31C553.484 158.419 590.295 158.347 625.203 156.092L625.205 156.091C659.509 153.804 689.14 149.764 714.084 143.958C739.023 138.154 757.011 131.144 767.86 122.911ZM527.95 86.1663L527.956 86.1656C550.394 83.123 575.286 82.3401 602.636 83.8301C629.984 85.32 649.835 88.605 662.221 93.675C674.196 98.6013 675.8 104.202 667.577 110.442C659.186 116.809 644.229 121.569 622.36 124.648C600.082 127.569 574.675 128.259 546.134 126.704C517.59 125.149 497.584 121.985 486.072 117.223C474.696 112.331 473.3 106.808 481.368 100.686C490.237 93.9566 505.65 89.0912 527.95 86.1663Z" fill="#212121" stroke="white" stroke-width="0.86918"/>
<path opacity="0.06" d="M763.847 128.798C787.023 115.851 787.471 104.378 765.538 94.3751C820.786 99.0725 858.094 105.559 877.516 113.824C896.622 122.159 896.71 131.505 878.175 141.86C861.474 151.189 837.754 158.101 806.881 162.586L805.443 162.795L806.321 162.985L890.706 181.233L890.849 181.264L891.085 181.227C912.068 177.961 931.749 173.591 950.119 168.115L950.128 168.112L950.138 168.109C967.928 162.59 982.766 156.512 994.641 149.878C1017.14 137.312 1024.12 125.294 1015.69 113.834C1007.27 102.378 983.042 92.2391 943.076 83.4095C903.313 74.4603 848.962 67.4365 780.035 62.3358C682.736 55.1354 599.516 54.5122 530.383 60.482C460.696 66.407 410.078 78.059 378.847 95.5053C363.111 104.296 357.258 112.927 361.206 121.388C364.785 129.688 378.27 137.034 401.607 143.435C424.953 149.837 456.912 154.538 497.474 157.54C535.14 160.327 571.85 160.908 607.603 159.279L607.605 159.279C642.77 157.608 674.03 154.107 701.372 148.765C728.722 143.421 749.582 136.767 763.847 128.798ZM540.709 87.8958L540.716 87.8951C564.356 85.2635 589.474 84.9245 616.072 86.8928C642.667 88.8609 661.024 92.4835 671.182 97.7502C680.974 102.857 680.232 108.472 669.269 114.597C658.085 120.844 641.077 125.32 618.027 127.993C594.599 130.506 569.007 130.744 541.25 128.69C513.49 126.635 494.929 123.13 485.509 118.187C476.297 113.124 477.216 107.589 487.973 101.58C499.789 94.9795 517.298 90.4081 540.709 87.8958Z" fill="#212121" stroke="white" stroke-width="0.86918"/>
<path opacity="0.0628571" d="M756.271 134.788C784.914 122.299 790.264 110.853 772.487 100.465C825.661 106.127 860.126 113.258 875.953 121.847C891.396 130.479 887.524 139.8 864.535 149.823C843.831 158.851 817.184 165.321 784.521 169.24L783.289 169.388L783.965 169.563L860.206 189.237L860.365 189.278L860.656 189.24C882.963 186.358 904.433 182.354 925.06 177.23L925.078 177.225C945.144 172.047 962.503 166.264 977.149 159.878C1004.89 147.784 1017 135.948 1013.52 124.382C1010.03 112.819 990.244 102.287 954.207 92.7809C918.424 83.1595 867.284 75.1985 800.801 68.8953C706.953 59.9976 624.303 57.9009 552.855 62.6242C480.839 67.2951 425.479 78.0095 386.977 94.7972C367.586 103.252 358.057 111.733 358.363 120.231C358.37 128.562 368.655 136.122 389.168 142.914C409.686 149.708 439.517 154.958 478.646 158.668C514.982 162.113 551.312 163.343 587.639 162.354L587.643 162.354C623.403 161.312 656.053 158.377 685.58 153.539C715.116 148.701 738.698 142.45 756.271 134.788ZM551.615 90.0557L551.622 90.055C576.284 87.8539 601.435 87.9609 627.076 90.3919C652.714 92.8226 669.436 96.7542 677.293 102.177C684.848 107.43 681.738 113.02 668.11 118.962C654.213 125.021 635.292 129.18 611.219 131.432C586.821 133.519 561.242 133.303 534.481 130.765C507.718 128.228 490.744 124.409 483.484 119.322C476.488 114.123 479.742 108.616 493.113 102.786C507.793 96.3847 527.253 92.1404 551.615 90.0557Z" fill="#212121" stroke="white" stroke-width="0.86918"/>
<path opacity="0.0657143" d="M745.104 140.819C779.006 128.881 789.233 117.557 775.828 106.866C826.473 113.453 857.8 121.174 869.894 130.018C881.569 138.884 873.741 148.109 846.475 157.712C821.93 166.355 792.566 172.334 758.348 175.66L757.288 175.763L757.809 175.925L825.327 196.875L825.498 196.928L825.846 196.891C849.302 194.415 872.396 190.809 895.123 186.073L895.138 186.07C917.328 181.271 937.079 175.824 954.388 169.728C987.161 158.187 1004.29 146.621 1005.78 135.04C1007.27 123.459 992.069 112.615 960.236 102.503C928.707 92.2823 881.166 83.444 817.632 75.9858C727.947 65.4581 646.494 61.9034 573.274 65.3435C499.494 68.7221 439.803 78.416 394.323 94.4323C371.42 102.498 358.301 110.767 354.964 119.235C351.401 127.533 358.404 135.247 375.934 142.38C393.468 149.514 420.944 155.275 458.343 159.665C493.073 163.742 528.749 165.612 565.376 165.27L565.379 165.27C601.465 164.865 635.254 162.519 666.736 158.224C698.223 153.929 724.355 148.126 745.104 140.819ZM560.494 92.6079L560.503 92.6074C585.998 90.8527 610.989 91.4045 635.476 94.2789C659.959 97.153 674.921 101.363 680.421 106.902C685.69 112.264 680.213 117.787 664.027 123.487C647.525 129.298 626.845 133.109 601.915 134.924C576.732 136.569 551.361 135.901 525.804 132.901C500.243 129.901 484.983 125.799 479.936 120.606C475.198 115.306 480.786 109.868 496.666 104.275C514.096 98.1372 535.349 94.2518 560.494 92.6079Z" fill="#212121" stroke="white" stroke-width="0.86918"/>
<path opacity="0.0685714" d="M730.34 146.828C769.249 135.53 784.283 124.419 775.408 113.51C823.099 120.973 851.025 129.222 859.286 138.251C867.115 147.287 855.373 156.348 824.04 165.446C795.846 173.632 763.995 179.072 728.471 181.78L727.557 181.85L727.956 182.001L786.237 204.068L786.415 204.135L786.822 204.101C811.245 202.051 835.786 198.868 860.44 194.556L860.453 194.554C884.599 190.169 906.594 185.096 926.435 179.335C963.999 168.428 986.013 157.218 992.459 145.71C998.904 134.201 988.412 123.127 961.028 112.488C933.994 101.744 890.413 92.0951 830.308 83.5383C745.468 71.4598 665.83 66.4736 591.394 68.6036C516.427 70.6625 452.85 79.2618 400.734 94.3948C374.49 102.015 357.888 110.013 350.937 118.386C343.833 126.587 347.5 134.396 361.91 141.815C376.325 149.236 401.237 155.464 436.622 160.502C469.483 165.18 504.237 167.676 540.884 167.985L540.889 167.985C577.024 168.221 611.694 166.482 644.887 162.762C678.08 159.043 706.569 153.73 730.34 146.828ZM567.182 95.5124L567.191 95.5119C593.329 94.2163 617.967 95.2084 641.11 98.5032C664.249 101.797 677.34 106.252 680.444 111.865C683.394 117.299 675.574 122.713 656.957 128.118C637.981 133.628 615.706 137.06 590.096 138.427C564.318 139.619 539.351 138.505 515.194 135.066C491.034 131.626 477.601 127.273 474.8 122.013C472.353 116.651 480.248 111.324 498.513 106.02C518.555 100.201 541.433 96.7042 567.182 95.5124Z" fill="#212121" stroke="white" stroke-width="0.86918"/>
<path opacity="0.0714286" d="M712 152.75C755.625 142.179 775.358 131.369 771.12 120.327C815.464 128.609 839.762 137.322 844.122 146.465C848.046 155.606 832.465 164.43 797.31 172.949C765.687 180.611 731.595 185.47 695.031 187.538L694.243 187.583L694.542 187.725L743.141 210.74L743.32 210.825L743.787 210.795C768.99 209.186 794.79 206.451 821.185 202.594L821.196 202.593C847.117 198.655 871.19 193.994 893.414 188.608C935.486 178.414 962.209 167.643 973.56 156.297C984.912 144.949 979.21 133.73 956.485 122.642C934.153 111.457 894.864 101.07 838.646 91.4794C759.292 77.9411 682.073 71.5606 606.989 72.3636C531.417 73.0863 464.432 80.5258 406.072 94.6669C376.684 101.788 356.729 109.456 346.22 117.67C335.632 125.71 335.932 133.555 347.112 141.204C358.295 148.855 380.453 155.504 413.558 161.152C444.302 166.397 477.869 169.5 514.26 170.458L514.265 170.458C550.175 171.334 585.459 170.215 620.106 167.099C654.75 163.983 685.384 159.199 712 152.75ZM571.534 98.7274L571.543 98.7271C598.13 97.8999 622.224 99.3243 643.844 103.013C665.459 106.7 676.584 111.365 677.27 117.01C677.88 122.476 667.764 127.738 646.864 132.803C625.563 137.964 601.868 140.991 575.765 141.898C549.583 142.629 525.213 141.077 502.643 137.227C480.071 133.376 468.563 128.806 468.028 123.519C467.888 118.132 478.043 112.958 498.548 107.99C521.043 102.539 545.367 99.4585 571.534 98.7274Z" fill="#212121" stroke="white" stroke-width="0.86918"/>
<path opacity="0.0742857" d="M762.901 127.247C762.444 138.335 738.159 148.76 690.145 158.523C660.883 164.472 628.335 168.693 592.503 171.182C556.668 173.671 521.041 174.161 485.631 172.651L485.626 172.651C449.769 171.052 417.64 167.363 389.245 161.59C358.67 155.373 339.437 148.353 331.573 140.53C323.712 132.71 326.78 124.89 340.768 117.072C354.752 109.078 377.907 101.796 410.218 95.227C474.384 82.1809 544.271 75.9575 619.865 76.5768C695.023 77.1074 769.237 84.8345 842.505 99.7312C894.408 110.284 929.106 121.331 946.564 132.872C946.564 132.872 946.564 132.873 946.564 132.873L945.989 132.909C963.847 144.338 964.709 155.591 948.576 166.668C932.442 177.744 901.274 187.979 855.072 197.373C830.663 202.336 804.73 206.545 777.272 210.002L762.901 127.247ZM762.901 127.247C803.537 136.282 824.012 145.392 824.435 154.578L762.901 127.247ZM573.438 102.209L573.447 102.209C600.285 101.856 623.65 103.701 643.577 107.753C663.5 111.804 672.582 116.642 670.845 122.278C669.108 127.736 656.766 132.804 633.747 137.485C610.288 142.254 585.357 144.852 558.951 145.293C532.562 145.557 508.976 143.581 488.169 139.35C467.361 135.12 457.86 130.369 459.593 125.093C461.764 119.723 474.107 114.742 496.692 110.15C521.465 105.113 547.046 102.474 573.438 102.209Z" fill="#212121" stroke="white" stroke-width="0.86918"/>
<path opacity="0.0771429" d="M750.71 134.199C787.306 143.915 803.797 153.349 800.281 162.507C796.337 171.65 773.437 179.802 731.483 186.959C693.757 193.395 655.986 196.981 618.174 197.728L617.595 197.739L617.739 197.864L645.943 222.246L646.094 222.376L646.694 222.36C672.87 221.665 700.593 219.884 729.86 217.02L729.868 217.019C758.739 214.059 786.409 210.32 812.878 205.805C862.982 197.257 898.473 187.6 919.329 176.833C940.188 166.064 944.165 154.814 931.246 143.086C918.798 131.275 888.956 119.651 841.758 108.215C775.131 92.0707 704.482 83.055 629.825 81.1944C554.794 79.2383 482.532 84.1987 413.046 96.0535C378.055 102.023 351.878 108.864 334.526 116.576C317.248 124.114 310.836 131.849 315.316 139.78C319.799 147.715 335.958 155.055 363.773 161.795C389.607 168.055 420.055 172.301 455.104 174.531L455.11 174.531C489.746 176.663 525.444 176.805 562.194 174.961C598.941 173.118 633.158 169.492 664.845 164.086C716.885 155.207 745.541 145.246 750.71 134.199ZM572.782 105.913L572.791 105.913C599.684 106.037 622.136 108.289 640.215 112.67C658.29 117.049 665.267 122.024 661.121 127.608C657.049 133.018 642.57 137.853 617.609 142.111C592.174 146.451 566.201 148.598 539.691 148.57C513.286 148.366 490.669 145.979 471.788 141.404C452.907 136.829 445.477 131.935 449.465 126.709C453.932 121.394 468.375 116.647 492.863 112.469C519.722 107.887 546.362 105.709 572.782 105.913Z" fill="#212121" stroke="white" stroke-width="0.86918"/>
<path opacity="0.08" d="M734.544 141.113C766.802 151.43 779.184 161.113 771.757 170.173C763.908 179.214 737.587 186.933 692.705 193.323C652.351 199.068 613.169 201.972 575.163 202.046L574.672 202.047L574.755 202.163L592.4 226.952L592.514 227.112L593.19 227.106C619.556 226.879 647.928 225.596 678.304 223.262L678.311 223.261C708.334 220.824 737.494 217.591 765.793 213.562C819.358 205.937 858.843 196.948 884.228 186.594C909.617 176.24 918.405 165.104 910.561 153.188C903.22 141.198 878.464 129.083 836.328 116.848C776.844 99.5759 710.297 89.3394 636.717 86.1626C562.821 82.8847 488.731 86.5448 414.447 97.1203C377.042 102.446 348.041 108.794 327.456 116.168C307.02 123.367 297.317 130.958 298.38 138.939C299.444 146.926 312.402 154.531 337.25 161.746C360.329 168.448 388.869 173.221 422.84 176.064L422.846 176.065C456.442 178.803 491.937 179.576 529.322 178.391C566.706 177.206 602.334 174.202 636.207 169.379C691.879 161.453 724.69 152.034 734.544 141.113ZM569.485 109.793L569.494 109.793C596.247 110.394 617.61 113.035 633.698 117.707C649.781 122.377 654.614 127.449 648.086 132.942C641.707 138.262 625.197 142.825 598.489 146.628C571.275 150.502 544.459 152.183 518.045 151.685C491.816 151.013 470.345 148.235 453.539 143.355C436.733 138.475 431.418 133.475 437.635 128.337C444.367 123.119 460.803 118.642 487.005 114.912C515.741 110.821 543.235 109.121 569.485 109.793Z" fill="#212121" stroke="white" stroke-width="0.86918"/>
<path opacity="0.0828571" d="M714.428 147.918C742.085 158.75 750.27 168.605 738.989 177.498C727.29 186.369 697.747 193.596 650.281 199.168C607.608 204.177 567.316 206.376 529.406 205.776L528.994 205.77L529.024 205.876L535.976 230.883L536.031 231.082L536.795 231.089C563.15 231.33 591.956 230.555 623.211 228.768L623.216 228.768C654.164 226.873 684.594 224.169 714.507 220.658C771.128 214.011 814.306 205.758 844.026 195.896C873.747 186.034 887.278 175.098 884.571 163.086C882.398 151.007 862.919 138.492 826.162 125.548C774.268 107.273 712.323 95.8927 640.39 91.4244C568.196 86.8505 492.839 89.183 414.32 98.4001C374.783 103.041 343.18 108.85 319.519 115.829C296.084 122.637 283.165 130.024 280.802 137.995C278.438 145.971 288.087 153.785 309.783 161.426C329.936 168.523 356.357 173.788 388.987 177.223L388.993 177.224C421.288 180.547 456.308 181.946 494.044 181.428C531.783 180.91 568.552 178.549 604.354 174.346C663.234 167.434 699.953 158.628 714.428 147.918ZM563.478 113.803L563.485 113.803C589.907 114.876 610.011 117.887 623.981 122.807C637.947 127.725 640.614 132.856 631.747 138.218C623.106 143.408 604.69 147.664 576.44 150.981C547.656 154.359 520.204 155.559 494.086 154.594C468.22 153.459 448.065 150.312 433.467 145.171C418.869 140.03 415.694 134.962 424.099 129.949C433.048 124.866 451.353 120.695 479.068 117.442C509.461 113.874 537.597 112.667 563.478 113.803Z" fill="#212121" stroke="white" stroke-width="0.86918"/>
<path opacity="0.0857143" d="M690.422 154.547C713.253 165.799 717.189 175.749 702.138 184.408C686.675 193.041 654.133 199.719 604.448 204.429C559.783 208.664 518.688 210.142 481.164 208.872L480.825 208.861L480.81 208.956L477.016 233.992L476.978 234.239L477.849 234.263C503.993 234.969 533.014 234.708 564.911 233.482L564.916 233.482C596.553 232.142 628.021 229.989 659.322 227.021C718.569 221.404 765.112 213.948 798.939 204.653C832.765 195.357 850.932 184.704 853.385 172.689C856.397 160.615 842.353 147.792 811.251 134.231C789.308 124.663 764.113 116.765 735.67 110.542C707.231 104.321 675.58 99.7823 640.733 96.9213C570.791 91.0869 494.74 92.0744 412.581 99.8639C371.212 103.786 337.247 109.012 310.691 115.543C284.434 121.908 268.401 129.036 262.632 136.934C256.858 144.837 263.113 152.803 281.496 160.818C298.574 168.264 322.681 173.984 353.711 177.984L353.717 177.984C384.462 181.867 418.739 183.88 456.542 184.033C494.348 184.186 531.981 182.485 569.44 178.934C631.08 173.09 671.43 164.965 690.422 154.547ZM554.716 117.896L554.723 117.896C580.627 119.436 599.31 122.794 611.053 127.914C622.792 133.033 623.293 138.184 612.142 143.377C601.303 148.397 581.119 152.313 551.545 155.117C521.412 157.974 493.534 158.684 467.912 157.259C442.592 155.667 423.915 152.173 411.639 146.82C399.364 141.468 398.333 136.37 408.872 131.517C419.973 126.61 440.009 122.777 469.024 120.026C500.839 117.01 529.402 116.305 554.716 117.896Z" fill="#212121" stroke="white" stroke-width="0.86918"/>
<path opacity="0.0885714" d="M662.619 160.935C680.439 172.503 680.113 182.467 661.41 190.826C642.296 199.156 607.002 205.233 555.478 209.046C509.161 212.474 467.577 213.219 430.726 211.288L430.452 211.273L430.404 211.357L415.892 236.23L415.711 236.541L416.716 236.586C442.45 237.753 471.466 238.007 503.763 237.351L503.767 237.351C535.854 236.577 568.122 234.99 600.572 232.588C661.995 228.043 711.549 221.441 749.225 212.782C786.898 204.123 809.559 193.836 817.152 181.91C825.33 169.935 816.842 156.898 791.627 142.813C773.842 132.878 752.098 124.552 726.408 117.843C700.728 111.137 671.14 106.056 637.663 102.59C637.663 102.59 637.662 102.589 637.662 102.589L662.619 160.935ZM662.619 160.935C639.249 170.979 595.574 178.36 531.646 183.091C492.813 185.965 454.603 186.992 417.015 186.17C379.432 185.348 346.158 182.736 317.201 178.324L317.195 178.323C288.016 173.792 266.397 167.66 252.521 159.909C237.588 151.567 234.795 143.509 243.928 135.743C253.059 127.979 272.082 121.164 300.96 115.291L662.619 160.935ZM543.182 122.025L543.188 122.025C568.391 124.023 585.5 127.703 594.929 132.97C599.648 135.607 601.588 138.203 600.681 140.768C599.773 143.338 596.009 145.87 589.342 148.357C576.383 153.17 554.586 156.715 523.914 158.984C492.662 161.297 464.573 161.51 439.642 159.635C415.046 157.597 398 153.782 388.139 148.273C378.279 142.765 379.378 137.674 391.986 133.015C405.156 128.32 426.771 124.855 456.863 122.628C489.858 120.186 518.629 119.99 543.182 122.025Z" fill="#212121" stroke="white" stroke-width="0.86918"/>
<path opacity="0.0914286" d="M631.124 167.018C643.796 178.788 639.231 188.69 617.021 196.683C594.399 204.646 556.622 210.076 503.653 212.962C456.037 215.556 414.284 215.561 378.388 212.984L378.172 212.968L378.099 213.039L352.981 237.56L352.58 237.952L353.757 238.028C378.887 239.645 407.679 240.413 440.13 240.332L440.133 240.332C472.426 240.129 505.249 239.12 538.603 237.303C601.735 233.863 653.923 228.166 695.161 220.208C736.394 212.252 763.372 202.407 776.047 190.664C789.322 178.883 786.478 165.73 767.343 151.21C740.327 130.71 694.811 116.453 631.122 108.365C567.26 100.154 491.552 98.4413 404.006 103.211C359.927 105.612 322.027 109.558 290.309 115.051C259.03 120.389 237.166 126.839 224.746 134.409C212.334 141.973 211.617 150.062 222.983 158.687C233.548 166.704 252.524 173.201 279.613 178.225L279.617 178.226C306.564 183.133 338.582 186.323 375.661 187.808C412.746 189.293 451.244 188.947 491.155 186.773C556.881 183.192 603.55 176.61 631.124 167.018ZM528.859 126.144L528.864 126.144C540.973 127.361 550.921 128.964 558.725 130.94C566.519 132.914 572.11 135.243 575.635 137.918C579.157 140.59 579.993 143.194 577.988 145.736C575.981 148.281 571.143 150.738 563.43 153.1C548.449 157.667 525.203 160.813 493.668 162.531C461.539 164.281 433.453 163.996 409.406 161.685C397.599 160.453 387.84 158.809 380.11 156.766C372.394 154.727 366.744 152.304 363.049 149.5C359.354 146.696 358.308 144.039 360.014 141.519C361.724 138.994 366.192 136.624 373.467 134.416C388.609 129.969 411.637 126.9 442.576 125.214C476.497 123.366 505.255 123.68 528.859 126.144Z" fill="#212121" stroke="white" stroke-width="0.86918"/>
<path opacity="0.0942857" d="M596.077 172.735C599.75 178.578 599.49 183.91 595.214 188.727C590.812 193.685 582.167 198.084 569.241 201.914C543.282 209.448 503.31 214.189 449.3 216.125C400.75 217.866 359.145 217.131 324.481 213.926L324.314 213.911L324.227 213.97L288.692 237.952L287.965 238.444L289.355 238.561C313.691 240.617 342.04 241.892 374.4 242.386L374.403 242.386C406.656 242.757 439.785 242.333 473.788 241.114C538.15 238.806 592.576 234.056 637.062 226.86C681.543 219.665 712.63 210.338 730.286 198.867C748.543 187.377 751.396 174.21 738.501 159.342C729.412 148.861 715.028 139.857 695.437 132.335C675.865 124.821 651.074 118.775 621.088 114.183C561.004 104.874 486.331 101.826 397.078 105.026C352.142 106.637 312.7 109.896 278.754 114.805C245.31 119.568 220.771 125.605 205.16 132.923C197.354 136.582 192.41 140.42 190.368 144.445C188.324 148.476 189.181 152.711 193.025 157.143C196.599 161.265 202.446 165.034 210.477 168.449C218.499 171.86 228.73 174.932 241.15 177.676L241.153 177.676C265.884 183.039 296.403 186.784 332.699 188.92C369 191.056 407.494 191.394 448.182 189.935C515.199 187.532 564.506 181.802 596.077 172.735ZM511.759 130.206L511.763 130.207C523.312 131.634 532.542 133.409 539.475 135.518C546.417 137.629 550.923 140.034 553.238 142.703C555.549 145.367 555.303 147.959 552.206 150.464C549.113 152.966 543.235 155.33 534.534 157.547C517.643 161.833 493.128 164.556 460.972 165.709C428.208 166.884 400.341 166.102 377.365 163.372C366.123 161.934 357.098 160.122 350.269 157.948C343.439 155.775 338.91 153.277 336.48 150.474C334.05 147.671 334.115 145.025 336.902 142.538C339.69 140.051 345.162 137.767 353.36 135.695C370.36 131.532 394.626 128.881 426.175 127.75C460.763 126.51 489.288 127.332 511.759 130.206Z" fill="#212121" stroke="white" stroke-width="0.86918"/>
<path opacity="0.0971429" d="M557.624 178.014C558.725 183.821 556.196 189.085 549.897 193.788C543.385 198.651 532.882 202.882 518.359 206.469C489.26 213.518 447.401 217.532 392.762 218.504C343.648 219.377 302.511 217.908 269.346 214.101L269.214 214.086L269.118 214.134L223.439 237.396L222.282 237.985L223.88 238.155C247.238 240.634 274.93 242.406 306.954 243.472L306.956 243.472C338.926 244.413 372.108 244.577 406.503 243.965C471.607 242.807 527.858 239.039 575.255 232.66C622.646 226.282 657.605 217.542 680.105 206.43C703.187 195.323 711.734 182.248 705.228 167.129C700.641 156.469 690.126 147.225 673.842 139.388C657.568 131.556 635.469 125.097 607.573 119.992C551.718 109.656 478.645 105.296 388.363 106.902C342.91 107.71 302.224 110.258 266.307 114.546C230.953 118.698 203.926 124.276 185.242 131.287C175.902 134.792 169.335 138.527 165.574 142.501C161.812 146.477 160.826 150.734 162.779 155.272C164.596 159.495 168.848 163.375 175.381 166.917C181.91 170.458 190.783 173.698 201.973 176.65L201.976 176.65C224.307 182.429 253.096 186.7 288.335 189.47C323.578 192.241 361.777 193.26 402.932 192.528C470.725 191.322 522.295 186.487 557.624 178.014ZM491.891 134.154L491.893 134.155C502.791 135.782 511.233 137.714 517.242 139.941C523.285 142.18 526.682 144.644 527.811 147.27C528.939 149.89 527.638 152.454 523.454 154.91C519.296 157.349 512.422 159.601 502.8 161.657C484.128 165.629 458.533 167.908 426.001 168.486C392.855 169.076 365.422 167.804 343.695 164.676C333.108 163.043 324.887 161.076 319.009 158.788C313.107 156.49 309.727 153.934 308.537 151.17C307.349 148.407 308.5 145.786 312.362 143.346C316.209 140.916 322.646 138.735 331.706 136.816C350.432 132.968 375.749 130.757 407.665 130.19C442.656 129.567 470.728 130.891 491.891 134.154Z" fill="#212121" stroke="white" stroke-width="0.86918"/>
<path opacity="0.1" d="M515.971 182.757C514.568 188.518 509.809 193.697 501.535 198.262C492.961 202.992 480.681 207.022 464.672 210.338C432.66 216.845 389.237 220.102 334.389 220.102C285.087 220.102 244.734 217.909 213.324 213.528L213.209 213.512L213.102 213.556L157.624 235.919L156.086 236.54L157.731 236.753C179.936 239.637 206.762 241.893 238.206 243.522L238.208 243.522C269.653 245.026 302.638 245.778 337.163 245.778C402.514 245.778 460.165 243.021 510.115 237.506C560.058 231.992 598.628 223.906 625.802 213.236C639.696 207.902 650.154 202.021 657.145 195.579C664.143 189.13 667.687 182.1 667.687 174.493C667.687 163.76 661.155 154.356 648.298 146.265C635.444 138.175 616.202 131.35 590.602 125.771C539.395 114.485 468.471 108.847 377.846 108.847C332.221 108.847 290.599 110.664 252.981 114.299C215.984 117.808 186.671 122.886 165.056 129.538C154.251 132.864 146.109 136.467 140.66 140.359C135.213 144.25 132.388 148.483 132.388 153.069C132.388 157.339 134.978 161.29 139.963 164.931C144.949 168.573 152.398 171.957 162.279 175.095L162.281 175.096C182.046 181.248 208.893 186.012 242.809 189.396C276.728 192.781 314.344 194.473 355.655 194.473C423.705 194.473 477.148 190.57 515.971 182.757ZM469.305 137.898L469.307 137.899C479.467 139.713 487.051 141.788 492.086 144.114C494.603 145.277 496.458 146.491 497.677 147.746C498.892 148.995 499.461 150.266 499.461 151.566C499.461 152.861 498.876 154.135 497.623 155.393C496.365 156.657 494.452 157.884 491.857 159.063C486.667 161.421 478.85 163.543 468.382 165.421C448.076 169.048 421.599 170.864 388.942 170.864C355.668 170.864 328.883 169.11 308.576 165.608C298.727 163.794 291.377 161.689 286.5 159.303C281.592 156.903 279.347 154.302 279.347 151.566C279.347 148.831 281.59 146.245 286.498 143.876C291.375 141.522 298.725 139.463 308.575 137.711C328.883 134.209 355.052 132.455 387.093 132.455C422.218 132.455 449.618 134.272 469.305 137.898Z" fill="#212121" stroke="white" stroke-width="0.86918"/>
</svg>
