<svg width="50" height="50" viewBox="0 0 50 50" fill="none" xmlns="http://www.w3.org/2000/svg">
<path d="M25 50C11.1925 50 0 38.8075 0 25C0 11.1925 11.1925 0 25 0C38.8075 0 50 11.1925 50 25C50 38.8075 38.8075 50 25 50ZM17.225 27.925L17.2575 27.9075L19.4325 35.0825C19.7125 35.86 20.0975 36 20.565 35.935C21.035 35.8725 21.2825 35.62 21.59 35.325L24.56 32.455L30.935 37.175C32.1 37.8175 32.9375 37.485 33.2275 36.095L37.37 16.54C37.8275 14.72 37.0275 13.99 35.615 14.57L11.2825 23.97C9.6225 24.635 9.6325 25.565 10.9825 25.9775L17.225 27.9275V27.925Z" fill="white"/>
</svg>
